<svg xmlns="http://www.w3.org/2000/svg" xmlns:xlink="http://www.w3.org/1999/xlink" xmlns:lucid="lucid" width="1533.35" height="1480"><g transform="translate(-38.04999999999999 -160)" lucid:page-tab-id="0_0"><path d="M220 180h480v95.33H220z" stroke="#000" stroke-opacity="0" stroke-width="2" fill="#fff" fill-opacity="0"/><use xlink:href="#a" transform="matrix(1,0,0,1,225,185) translate(60.37037037037035 37.66666666666667)"/><use xlink:href="#b" transform="matrix(1,0,0,1,225,185) translate(152.07407407407408 37.66666666666667)"/><use xlink:href="#c" transform="matrix(1,0,0,1,225,185) translate(174.2962962962963 37.66666666666667)"/><use xlink:href="#d" transform="matrix(1,0,0,1,225,185) translate(230.5185185185185 37.66666666666667)"/><use xlink:href="#e" transform="matrix(1,0,0,1,225,185) translate(289.7037037037037 37.66666666666667)"/><use xlink:href="#b" transform="matrix(1,0,0,1,225,185) translate(319.33333333333337 37.66666666666667)"/><use xlink:href="#f" transform="matrix(1,0,0,1,225,185) translate(341.55555555555554 37.66666666666667)"/><use xlink:href="#g" transform="matrix(1,0,0,1,225,185) translate(73.71604938271605 62.55555555555555)"/><use xlink:href="#h" transform="matrix(1,0,0,1,225,185) translate(116.08641975308643 62.55555555555555)"/><use xlink:href="#i" transform="matrix(1,0,0,1,225,185) translate(130.90123456790124 62.55555555555555)"/><use xlink:href="#j" transform="matrix(1,0,0,1,225,185) translate(186.11111111111111 62.55555555555555)"/><use xlink:href="#k" transform="matrix(1,0,0,1,225,185) translate(225.5679012345679 62.55555555555555)"/><use xlink:href="#l" transform="matrix(1,0,0,1,225,185) translate(240.3827160493827 62.55555555555555)"/><use xlink:href="#m" transform="matrix(1,0,0,1,225,185) translate(260.1358024691358 62.55555555555555)"/><use xlink:href="#n" transform="matrix(1,0,0,1,225,185) translate(292.6296296296296 62.55555555555555)"/><use xlink:href="#o" transform="matrix(1,0,0,1,225,185) translate(322.25925925925924 62.55555555555555)"/><use xlink:href="#p" transform="matrix(1,0,0,1,225,185) translate(372.58024691358025 62.55555555555555)"/><path d="M830 420h110v720H830z" stroke="#000" stroke-width="2" fill="#fff"/><use xlink:href="#q" transform="matrix(1,0,0,1,835,425) translate(25.025 347.79999999999995)"/><use xlink:href="#r" transform="matrix(1,0,0,1,835,425) translate(25.049999999999997 369.4)"/><path d="M141 439.33h669.76" stroke="#000" stroke-width="2" fill="none"/><path d="M141 440.33h-1v-2h1zM825.76 439.33l-14.26 4.64v-9.27z"/><path d="M829 439.33l-18.5 6.02v-12.03zm-16.5 3.26l10.03-3.27-10.03-3.26z"/><use xlink:href="#s" transform="matrix(1,0,0,1,280.1174999999991,413.733333333333) translate(0 14.4)"/><use xlink:href="#t" transform="matrix(1,0,0,1,280.1174999999991,413.733333333333) translate(20 14.4)"/><use xlink:href="#u" transform="matrix(1,0,0,1,280.1174999999991,413.733333333333) translate(82.9 14.4)"/><use xlink:href="#v" transform="matrix(1,0,0,1,280.1174999999991,413.733333333333) translate(115.85000000000001 14.4)"/><use xlink:href="#w" transform="matrix(1,0,0,1,280.1174999999991,413.733333333333) translate(148.8 14.4)"/><use xlink:href="#x" transform="matrix(1,0,0,1,280.1174999999991,413.733333333333) translate(230.55 14.4)"/><use xlink:href="#u" transform="matrix(1,0,0,1,280.1174999999991,413.733333333333) translate(241.55 14.4)"/><use xlink:href="#v" transform="matrix(1,0,0,1,280.1174999999991,413.733333333333) translate(274.5 14.4)"/><use xlink:href="#y" transform="matrix(1,0,0,1,280.1174999999991,413.733333333333) translate(307.45 14.4)"/><use xlink:href="#z" transform="matrix(1,0,0,1,280.1174999999991,413.733333333333) translate(384.2 14.4)"/><path d="M824.75 278c-13.67 0-24.75-12.54-24.75-28 0-12.37 6.7-22.8 17.1-26.63C816.5 187 857.75 180 874.25 194c8.25-21 49.5-14 49.5 7 24.75-7 49.5 21 33 56 16.5 28 0 63-33 49-8.25 18.2-41.25 18.2-49.5 0-16.5 14-49.5 7-49.5-28z" stroke="#000" stroke-width="2" fill="#fff"/><use xlink:href="#A" transform="matrix(1,0,0,1,805,185) translate(32.925 57.8)"/><use xlink:href="#B" transform="matrix(1,0,0,1,805,185) translate(73.275 57.8)"/><use xlink:href="#C" transform="matrix(1,0,0,1,805,185) translate(45.525 79.4)"/><path d="M141 680.67h669.76" stroke="#000" stroke-width="2" fill="none"/><path d="M141 681.67h-1v-2h1zM825.76 680.67l-14.26 4.63v-9.27z"/><path d="M829 680.67l-18.5 6v-12.02zm-16.5 3.26l10.03-3.26-10.03-3.26z"/><use xlink:href="#D" transform="matrix(1,0,0,1,427.05,655.0666666666667) translate(0 14.4)"/><use xlink:href="#E" transform="matrix(1,0,0,1,427.05,655.0666666666667) translate(20 14.4)"/><use xlink:href="#F" transform="matrix(1,0,0,1,427.05,655.0666666666667) translate(66.95 14.4)"/><path d="M100 620.76v-61.52" fill="none"/><path d="M100 620.76V610.5m0-10.25v-20.5m0-10.26v-10.26" stroke="#000" stroke-width="2" fill="none"/><path d="M100 635.76l-4.64-14.26h9.28z"/><path d="M100 639l-6-18.5h12zm-3.26-16.5l3.26 10.03 3.26-10.03zM104.64 558.5h-9.28l4.64-14.26z"/><path d="M106 559.5H94l6-18.5zm-9.26-2h6.52L100 547.47z"/><use xlink:href="#G" transform="matrix(1,0,0,1,49.04999999999999,579.2) translate(0 14.4)"/><use xlink:href="#H" transform="matrix(1,0,0,1,49.04999999999999,579.2) translate(20 14.4)"/><use xlink:href="#I" transform="matrix(1,0,0,1,108,579.2) translate(0 14.4)"/><path d="M91.6 1400h256l44 44v176h-300z" stroke="#d9be60" stroke-width="2" fill="#ffdf71"/><path d="M347.6 1400l44 44h-44z" fill="#d9be60"/><use xlink:href="#J" transform="matrix(1,0,0,1,96.59999999999991,1405) translate(17.125 43.800000000000004)"/><use xlink:href="#K" transform="matrix(1,0,0,1,96.59999999999991,1405) translate(37.125 43.800000000000004)"/><use xlink:href="#L" transform="matrix(1,0,0,1,96.59999999999991,1405) translate(52.125 43.800000000000004)"/><use xlink:href="#M" transform="matrix(1,0,0,1,96.59999999999991,1405) translate(80.075 43.800000000000004)"/><use xlink:href="#N" transform="matrix(1,0,0,1,96.59999999999991,1405) translate(132.025 43.800000000000004)"/><use xlink:href="#O" transform="matrix(1,0,0,1,96.59999999999991,1405) translate(152.025 43.800000000000004)"/><use xlink:href="#P" transform="matrix(1,0,0,1,96.59999999999991,1405) translate(189.925 43.800000000000004)"/><use xlink:href="#Q" transform="matrix(1,0,0,1,96.59999999999991,1405) translate(203.875 43.800000000000004)"/><use xlink:href="#R" transform="matrix(1,0,0,1,96.59999999999991,1405) translate(257.875 43.800000000000004)"/><use xlink:href="#S" transform="matrix(1,0,0,1,96.59999999999991,1405) translate(7.125 65.4)"/><use xlink:href="#N" transform="matrix(1,0,0,1,96.59999999999991,1405) translate(51.125 65.4)"/><use xlink:href="#T" transform="matrix(1,0,0,1,96.59999999999991,1405) translate(71.125 65.4)"/><use xlink:href="#U" transform="matrix(1,0,0,1,96.59999999999991,1405) translate(99.075 65.4)"/><use xlink:href="#V" transform="matrix(1,0,0,1,96.59999999999991,1405) translate(122.025 65.4)"/><use xlink:href="#W" transform="matrix(1,0,0,1,96.59999999999991,1405) translate(173.925 65.4)"/><use xlink:href="#X" transform="matrix(1,0,0,1,96.59999999999991,1405) translate(206.925 65.4)"/><use xlink:href="#Y" transform="matrix(1,0,0,1,96.59999999999991,1405) translate(272.875 65.4)"/><use xlink:href="#Z" transform="matrix(1,0,0,1,96.59999999999991,1405) translate(21.474999999999994 87.00000000000001)"/><use xlink:href="#aa" transform="matrix(1,0,0,1,96.59999999999991,1405) translate(91.025 87.00000000000001)"/><use xlink:href="#ab" transform="matrix(1,0,0,1,96.59999999999991,1405) translate(163.975 87.00000000000001)"/><use xlink:href="#ac" transform="matrix(1,0,0,1,96.59999999999991,1405) translate(195.575 87.00000000000001)"/><use xlink:href="#ad" transform="matrix(1,0,0,1,96.59999999999991,1405) translate(220.575 87.00000000000001)"/><use xlink:href="#R" transform="matrix(1,0,0,1,96.59999999999991,1405) translate(253.525 87.00000000000001)"/><use xlink:href="#ae" transform="matrix(1,0,0,1,96.59999999999991,1405) translate(6.625 108.60000000000002)"/><use xlink:href="#af" transform="matrix(1,0,0,1,96.59999999999991,1405) translate(71.575 108.60000000000002)"/><use xlink:href="#ag" transform="matrix(1,0,0,1,96.59999999999991,1405) translate(101.575 108.60000000000002)"/><use xlink:href="#ah" transform="matrix(1,0,0,1,96.59999999999991,1405) translate(152.525 108.60000000000002)"/><use xlink:href="#N" transform="matrix(1,0,0,1,96.59999999999991,1405) translate(207.425 108.60000000000002)"/><use xlink:href="#ai" transform="matrix(1,0,0,1,96.59999999999991,1405) translate(227.425 108.60000000000002)"/><use xlink:href="#Y" transform="matrix(1,0,0,1,96.59999999999991,1405) translate(273.375 108.60000000000002)"/><use xlink:href="#aj" transform="matrix(1,0,0,1,96.59999999999991,1405) translate(18.10000000000001 130.20000000000002)"/><use xlink:href="#ak" transform="matrix(1,0,0,1,96.59999999999991,1405) translate(57.10000000000001 130.20000000000002)"/><use xlink:href="#al" transform="matrix(1,0,0,1,96.59999999999991,1405) translate(125.10000000000001 130.20000000000002)"/><use xlink:href="#am" transform="matrix(1,0,0,1,96.59999999999991,1405) translate(183.05 130.20000000000002)"/><use xlink:href="#an" transform="matrix(1,0,0,1,96.59999999999991,1405) translate(207.05 130.20000000000002)"/><use xlink:href="#ao" transform="matrix(1,0,0,1,96.59999999999991,1405) translate(240.95 130.20000000000002)"/><use xlink:href="#ah" transform="matrix(1,0,0,1,96.59999999999991,1405) translate(12.625 151.8)"/><use xlink:href="#ap" transform="matrix(1,0,0,1,96.59999999999991,1405) translate(67.525 151.8)"/><use xlink:href="#aq" transform="matrix(1,0,0,1,96.59999999999991,1405) translate(115.47500000000001 151.8)"/><use xlink:href="#ar" transform="matrix(1,0,0,1,96.59999999999991,1405) translate(152.425 151.8)"/><use xlink:href="#as" transform="matrix(1,0,0,1,96.59999999999991,1405) translate(167.425 151.8)"/><use xlink:href="#at" transform="matrix(1,0,0,1,96.59999999999991,1405) translate(202.425 151.8)"/><use xlink:href="#au" transform="matrix(1,0,0,1,96.59999999999991,1405) translate(257.375 151.8)"/><use xlink:href="#ak" transform="matrix(1,0,0,1,96.59999999999991,1405) translate(9.699999999999989 173.4)"/><use xlink:href="#av" transform="matrix(1,0,0,1,96.59999999999991,1405) translate(77.69999999999999 173.4)"/><use xlink:href="#aw" transform="matrix(1,0,0,1,96.59999999999991,1405) translate(103.64999999999999 173.4)"/><use xlink:href="#ax" transform="matrix(1,0,0,1,96.59999999999991,1405) translate(170.5 173.4)"/><use xlink:href="#am" transform="matrix(1,0,0,1,96.59999999999991,1405) translate(227.4 173.4)"/><use xlink:href="#ay" transform="matrix(1,0,0,1,96.59999999999991,1405) translate(251.4 173.4)"/><path d="M960 1368c0 6.63-31.34 12-70 12s-70-5.37-70-12v-96c0-6.63 31.34-12 70-12s70 5.37 70 12z" stroke="#000" stroke-width="2" fill="#fff"/><path d="M960 1272c0 6.63-31.34 12-70 12s-70-5.37-70-12" stroke="#000" stroke-width="2" fill="none"/><g><use xlink:href="#az" transform="matrix(1,0,0,1,825,1289) translate(11.074999999999996 35.8)"/><use xlink:href="#aA" transform="matrix(1,0,0,1,825,1289) translate(66.025 35.8)"/><use xlink:href="#aB" transform="matrix(1,0,0,1,825,1289) translate(26.525 57.4)"/></g><path d="M829 742H159.24" stroke="#000" stroke-width="2" fill="none"/><path d="M830 743h-1v-2h1zM158.5 746.64L144.24 742l14.26-4.64z"/><path d="M159.5 748l-18.5-6 18.5-6zm-12.03-6l10.03 3.26v-6.52z"/><g><use xlink:href="#aC" transform="matrix(1,0,0,1,172.385,716.4000000000003) translate(0 14.4)"/><use xlink:href="#E" transform="matrix(1,0,0,1,172.385,716.4000000000003) translate(20 14.4)"/><use xlink:href="#u" transform="matrix(1,0,0,1,172.385,716.4000000000003) translate(66.95 14.4)"/><use xlink:href="#v" transform="matrix(1,0,0,1,172.385,716.4000000000003) translate(99.9 14.4)"/><use xlink:href="#w" transform="matrix(1,0,0,1,172.385,716.4000000000003) translate(132.85000000000002 14.4)"/><use xlink:href="#x" transform="matrix(1,0,0,1,172.385,716.4000000000003) translate(214.60000000000002 14.4)"/><use xlink:href="#u" transform="matrix(1,0,0,1,172.385,716.4000000000003) translate(225.60000000000002 14.4)"/><use xlink:href="#v" transform="matrix(1,0,0,1,172.385,716.4000000000003) translate(258.55 14.4)"/><use xlink:href="#y" transform="matrix(1,0,0,1,172.385,716.4000000000003) translate(291.5 14.4)"/><use xlink:href="#aD" transform="matrix(1,0,0,1,172.385,716.4000000000003) translate(368.25 14.4)"/><use xlink:href="#aE" transform="matrix(1,0,0,1,172.385,716.4000000000003) translate(402.315 14.4)"/><use xlink:href="#x" transform="matrix(1,0,0,1,172.385,716.4000000000003) translate(413.315 14.4)"/><use xlink:href="#u" transform="matrix(1,0,0,1,172.385,716.4000000000003) translate(424.315 14.4)"/><use xlink:href="#v" transform="matrix(1,0,0,1,172.385,716.4000000000003) translate(457.265 14.4)"/><use xlink:href="#y" transform="matrix(1,0,0,1,172.385,716.4000000000003) translate(490.215 14.4)"/><use xlink:href="#aF" transform="matrix(1,0,0,1,172.385,716.4000000000003) translate(566.965 14.4)"/><use xlink:href="#aG" transform="matrix(1,0,0,1,172.385,716.4000000000003) translate(597.53 14.4)"/></g><path d="M60 640h80v500H60z" stroke="#000" stroke-width="2" fill="#fff"/><g><use xlink:href="#aH" transform="matrix(1,0,0,1,65,645) translate(8.549999999999997 237.8)"/><use xlink:href="#aI" transform="matrix(1,0,0,1,65,645) translate(51.45 237.8)"/><use xlink:href="#aJ" transform="matrix(1,0,0,1,65,645) translate(17.575 259.4)"/></g><path d="M141 924.67h669.76" stroke="#000" stroke-width="2" fill="none"/><path d="M141 925.67h-1v-2h1zM825.76 924.67l-14.26 4.63v-9.27z"/><path d="M829 924.67l-18.5 6v-12.02zm-16.5 3.26l10.03-3.26-10.03-3.26z"/><g><use xlink:href="#aK" transform="matrix(1,0,0,1,272.41000000000054,899.0666666666671) translate(0 14.4)"/><use xlink:href="#aL" transform="matrix(1,0,0,1,272.41000000000054,899.0666666666671) translate(20 14.4)"/><use xlink:href="#aM" transform="matrix(1,0,0,1,272.41000000000054,899.0666666666671) translate(108.75000000000001 14.4)"/><use xlink:href="#x" transform="matrix(1,0,0,1,272.41000000000054,899.0666666666671) translate(160.70000000000002 14.4)"/><use xlink:href="#x" transform="matrix(1,0,0,1,272.41000000000054,899.0666666666671) translate(171.70000000000002 14.4)"/><use xlink:href="#x" transform="matrix(1,0,0,1,272.41000000000054,899.0666666666671) translate(182.70000000000002 14.4)"/><use xlink:href="#u" transform="matrix(1,0,0,1,272.41000000000054,899.0666666666671) translate(193.70000000000002 14.4)"/><use xlink:href="#v" transform="matrix(1,0,0,1,272.41000000000054,899.0666666666671) translate(226.65000000000003 14.4)"/><use xlink:href="#y" transform="matrix(1,0,0,1,272.41000000000054,899.0666666666671) translate(259.6 14.4)"/><use xlink:href="#aF" transform="matrix(1,0,0,1,272.41000000000054,899.0666666666671) translate(336.35 14.4)"/><use xlink:href="#aN" transform="matrix(1,0,0,1,272.41000000000054,899.0666666666671) translate(366.915 14.4)"/><use xlink:href="#aO" transform="matrix(1,0,0,1,272.41000000000054,899.0666666666671) translate(399.615 14.4)"/></g><path d="M60 420h80v120H60z" stroke="#000" stroke-width="2" fill="#fff"/><g><use xlink:href="#aH" transform="matrix(1,0,0,1,65,425) translate(8.549999999999997 47.8)"/><use xlink:href="#aP" transform="matrix(1,0,0,1,65,425) translate(51.45 47.8)"/><use xlink:href="#aQ" transform="matrix(1,0,0,1,65,425) translate(17.575 69.4)"/></g><path d="M159.24 516.67H829" stroke="#000" stroke-width="2" fill="none"/><path d="M158.5 521.3l-14.26-4.63 14.26-4.64z"/><path d="M159.5 522.68l-18.5-6 18.5-6.03zm-12.03-6l10.03 3.25v-6.52zM830 517.67h-1v-2h1z"/><g><use xlink:href="#aR" transform="matrix(1,0,0,1,425.07500000000005,491.06666666666655) translate(0 14.4)"/><use xlink:href="#t" transform="matrix(1,0,0,1,425.07500000000005,491.06666666666655) translate(20 14.4)"/><use xlink:href="#aS" transform="matrix(1,0,0,1,425.07500000000005,491.06666666666655) translate(82.9 14.4)"/></g><path d="M1307 420h105.6v720H1307z" stroke="#000" stroke-width="2" fill="#fff"/><g><use xlink:href="#aT" transform="matrix(1,0,0,1,1312,425) translate(22.049999999999997 347.79999999999995)"/><use xlink:href="#aU" transform="matrix(1,0,0,1,1312,425) translate(21.549999999999997 369.4)"/></g><path d="M1420 1368c0 6.63-26.86 12-60 12s-60-5.37-60-12v-96c0-6.63 26.86-12 60-12s60 5.37 60 12z" stroke="#000" stroke-width="2" fill="#fff"/><path d="M1420 1272c0 6.63-26.86 12-60 12s-60-5.37-60-12" stroke="#000" stroke-width="2" fill="none"/><g><use xlink:href="#aV" transform="matrix(1,0,0,1,1305,1289) translate(1.5999999999999943 35.8)"/><use xlink:href="#aW" transform="matrix(1,0,0,1,1305,1289) translate(58.5 35.8)"/><use xlink:href="#aB" transform="matrix(1,0,0,1,1305,1289) translate(16.525 57.4)"/></g><path d="M883.3 419l-.4-84.24" stroke="#000" stroke-width="2" fill="none"/><path d="M884.3 420h-2v-1h2zM887.53 334l-9.27.05 4.57-14.3z"/><path d="M888.9 335l-12 .05 5.9-18.53zm-9.27-1.96l6.52-.03-3.3-10z"/><g><use xlink:href="#aX" transform="matrix(1,0,0,1,891.108685356705,368.23609840102705) translate(0 14.4)"/><use xlink:href="#aY" transform="matrix(1,0,0,1,891.108685356705,368.23609840102705) translate(20 14.4)"/><use xlink:href="#aZ" transform="matrix(1,0,0,1,891.108685356705,368.23609840102705) translate(78.95 14.4)"/><use xlink:href="#ba" transform="matrix(1,0,0,1,891.108685356705,368.23609840102705) translate(114.95 14.4)"/></g><path d="M159.24 1092.67H829" stroke="#000" stroke-width="2" fill="none"/><path d="M158.5 1097.3l-14.26-4.63 14.26-4.64z"/><path d="M159.5 1098.68l-18.5-6 18.5-6.03zm-12.03-6l10.03 3.25v-6.52zM830 1093.67h-1v-2h1z"/><g><use xlink:href="#bb" transform="matrix(1,0,0,1,318.0175,1067.0666666666673) translate(0 14.4)"/><use xlink:href="#aL" transform="matrix(1,0,0,1,318.0175,1067.0666666666673) translate(30 14.4)"/><use xlink:href="#E" transform="matrix(1,0,0,1,318.0175,1067.0666666666673) translate(118.75000000000001 14.4)"/><use xlink:href="#v" transform="matrix(1,0,0,1,318.0175,1067.0666666666673) translate(165.70000000000002 14.4)"/><use xlink:href="#bc" transform="matrix(1,0,0,1,318.0175,1067.0666666666673) translate(198.65000000000003 14.4)"/><use xlink:href="#x" transform="matrix(1,0,0,1,318.0175,1067.0666666666673) translate(232.65000000000003 14.4)"/><use xlink:href="#v" transform="matrix(1,0,0,1,318.0175,1067.0666666666673) translate(243.65000000000003 14.4)"/><use xlink:href="#bd" transform="matrix(1,0,0,1,318.0175,1067.0666666666673) translate(276.6 14.4)"/><use xlink:href="#be" transform="matrix(1,0,0,1,318.0175,1067.0666666666673) translate(305.6 14.4)"/></g><path d="M856 1141v101.42" stroke="#000" stroke-width="2" fill="none"/><path d="M857 1141h-2v-1h2zM856 1257.42l-4.64-14.27h9.28z"/><path d="M856 1260.66l-6-18.5h12zm-3.26-16.5l3.26 10.02 3.26-10.03z"/><g><use xlink:href="#bf" transform="matrix(1,0,0,1,442.18499999999983,1208.677011836339) translate(0 14.4)"/><use xlink:href="#u" transform="matrix(1,0,0,1,442.18499999999983,1208.677011836339) translate(20 14.4)"/><use xlink:href="#v" transform="matrix(1,0,0,1,442.18499999999983,1208.677011836339) translate(52.95 14.4)"/><use xlink:href="#w" transform="matrix(1,0,0,1,442.18499999999983,1208.677011836339) translate(85.9 14.4)"/><use xlink:href="#bg" transform="matrix(1,0,0,1,442.18499999999983,1208.677011836339) translate(167.65000000000003 14.4)"/><use xlink:href="#x" transform="matrix(1,0,0,1,442.18499999999983,1208.677011836339) translate(226.60000000000002 14.4)"/><use xlink:href="#u" transform="matrix(1,0,0,1,442.18499999999983,1208.677011836339) translate(237.60000000000002 14.4)"/><use xlink:href="#v" transform="matrix(1,0,0,1,442.18499999999983,1208.677011836339) translate(270.55 14.4)"/><use xlink:href="#y" transform="matrix(1,0,0,1,442.18499999999983,1208.677011836339) translate(303.5 14.4)"/><use xlink:href="#z" transform="matrix(1,0,0,1,442.18499999999983,1208.677011836339) translate(380.25 14.4)"/></g><path d="M922.67 1141v101.28" stroke="#000" stroke-width="2" fill="none"/><path d="M923.67 1141h-2v-1h2zM922.67 1257.28l-4.64-14.27h9.27z"/><path d="M922.67 1260.5l-6.02-18.5h12.03zm-3.26-16.5l3.27 10.04 3.26-10.03z"/><g><use xlink:href="#bh" transform="matrix(1,0,0,1,930.6666666666665,1208.170499820578) translate(0 14.4)"/><use xlink:href="#x" transform="matrix(1,0,0,1,930.6666666666665,1208.170499820578) translate(28.65 14.4)"/><use xlink:href="#x" transform="matrix(1,0,0,1,930.6666666666665,1208.170499820578) translate(39.65 14.4)"/><use xlink:href="#x" transform="matrix(1,0,0,1,930.6666666666665,1208.170499820578) translate(50.65 14.4)"/><use xlink:href="#u" transform="matrix(1,0,0,1,930.6666666666665,1208.170499820578) translate(61.65 14.4)"/><use xlink:href="#v" transform="matrix(1,0,0,1,930.6666666666665,1208.170499820578) translate(94.6 14.4)"/><use xlink:href="#y" transform="matrix(1,0,0,1,930.6666666666665,1208.170499820578) translate(127.55 14.4)"/><use xlink:href="#aF" transform="matrix(1,0,0,1,930.6666666666665,1208.170499820578) translate(204.3 14.4)"/><use xlink:href="#aN" transform="matrix(1,0,0,1,930.6666666666665,1208.170499820578) translate(234.865 14.4)"/><use xlink:href="#aO" transform="matrix(1,0,0,1,930.6666666666665,1208.170499820578) translate(267.565 14.4)"/></g><path d="M480 1440h272l28 28v112H480z" stroke="#d9be60" stroke-width="2" fill="#ffdf71"/><path d="M752 1440l28 28h-28z" fill="#d9be60"/><g><use xlink:href="#bi" transform="matrix(1,0,0,1,485,1445) translate(3.674999999999983 36.19999999999999)"/><use xlink:href="#bj" transform="matrix(1,0,0,1,485,1445) translate(23.674999999999983 36.19999999999999)"/><use xlink:href="#ag" transform="matrix(1,0,0,1,485,1445) translate(59.624999999999986 36.19999999999999)"/><use xlink:href="#ah" transform="matrix(1,0,0,1,485,1445) translate(110.57499999999999 36.19999999999999)"/><use xlink:href="#bk" transform="matrix(1,0,0,1,485,1445) translate(165.475 36.19999999999999)"/><use xlink:href="#bl" transform="matrix(1,0,0,1,485,1445) translate(218.475 36.19999999999999)"/><use xlink:href="#bm" transform="matrix(1,0,0,1,485,1445) translate(243.475 36.19999999999999)"/><use xlink:href="#bn" transform="matrix(1,0,0,1,485,1445) translate(10.424999999999983 57.79999999999999)"/><use xlink:href="#bo" transform="matrix(1,0,0,1,485,1445) translate(47.32499999999999 57.79999999999999)"/><use xlink:href="#bp" transform="matrix(1,0,0,1,485,1445) translate(62.32499999999999 57.79999999999999)"/><use xlink:href="#bq" transform="matrix(1,0,0,1,485,1445) translate(121.27499999999999 57.79999999999999)"/><use xlink:href="#br" transform="matrix(1,0,0,1,485,1445) translate(175.225 57.79999999999999)"/><use xlink:href="#bs" transform="matrix(1,0,0,1,485,1445) translate(219.225 57.79999999999999)"/><use xlink:href="#bt" transform="matrix(1,0,0,1,485,1445) translate(244.225 57.79999999999999)"/><use xlink:href="#bu" transform="matrix(1,0,0,1,485,1445) translate(0.75 79.4)"/><use xlink:href="#N" transform="matrix(1,0,0,1,485,1445) translate(48.60000000000001 79.4)"/><use xlink:href="#bv" transform="matrix(1,0,0,1,485,1445) translate(68.60000000000001 79.4)"/><use xlink:href="#bw" transform="matrix(1,0,0,1,485,1445) translate(116.5 79.4)"/><use xlink:href="#af" transform="matrix(1,0,0,1,485,1445) translate(130.45 79.4)"/><use xlink:href="#bu" transform="matrix(1,0,0,1,485,1445) translate(160.45 79.4)"/><use xlink:href="#ak" transform="matrix(1,0,0,1,485,1445) translate(208.3 79.4)"/><use xlink:href="#bx" transform="matrix(1,0,0,1,485,1445) translate(276.3 79.4)"/><use xlink:href="#by" transform="matrix(1,0,0,1,485,1445) translate(124.05 101)"/></g><path d="M941 972.67h346.76" stroke="#000" stroke-width="2" fill="none"/><path d="M941 973.67h-1v-2h1zM1302.76 972.67l-14.26 4.63v-9.27z"/><path d="M1306 972.67l-18.5 6v-12.02zm-16.5 3.26l10.03-3.26-10.03-3.26z"/><g><use xlink:href="#bz" transform="matrix(1,0,0,1,1061.55,947.0666666666667) translate(0 14.4)"/><use xlink:href="#E" transform="matrix(1,0,0,1,1061.55,947.0666666666667) translate(20 14.4)"/><use xlink:href="#v" transform="matrix(1,0,0,1,1061.55,947.0666666666667) translate(66.95 14.4)"/><use xlink:href="#bA" transform="matrix(1,0,0,1,1061.55,947.0666666666667) translate(99.9 14.4)"/></g><path d="M959.24 1036.67H1306" stroke="#000" stroke-width="2" fill="none"/><path d="M958.5 1041.3l-14.26-4.63 14.26-4.64z"/><path d="M959.5 1042.68l-18.5-6 18.5-6.03zm-12.03-6l10.03 3.25v-6.52zM1307 1037.67h-1v-2h1z"/><g><use xlink:href="#bB" transform="matrix(1,0,0,1,1031.8675,1011.066666666667) translate(0 14.4)"/><use xlink:href="#aM" transform="matrix(1,0,0,1,1031.8675,1011.066666666667) translate(30 14.4)"/><use xlink:href="#x" transform="matrix(1,0,0,1,1031.8675,1011.066666666667) translate(81.95 14.4)"/><use xlink:href="#v" transform="matrix(1,0,0,1,1031.8675,1011.066666666667) translate(92.95 14.4)"/><use xlink:href="#bd" transform="matrix(1,0,0,1,1031.8675,1011.066666666667) translate(125.9 14.4)"/><use xlink:href="#be" transform="matrix(1,0,0,1,1031.8675,1011.066666666667) translate(154.9 14.4)"/></g><path d="M1359.8 1141v99.77" stroke="#000" stroke-width="2" fill="none"/><path d="M1360.8 1141h-2v-1h2zM1359.8 1255.77l-4.64-14.27h9.28z"/><path d="M1359.8 1259l-6-18.5h12zm-3.26-16.5l3.26 10.03 3.26-10.03z"/><g><use xlink:href="#bC" transform="matrix(1,0,0,1,1367.8,1189.2031283848257) translate(0 14.4)"/><use xlink:href="#bc" transform="matrix(1,0,0,1,1367.8,1189.2031283848257) translate(20 14.4)"/><use xlink:href="#bD" transform="matrix(1,0,0,1,1367.8,1189.2031283848257) translate(54 14.4)"/><use xlink:href="#x" transform="matrix(1,0,0,1,1367.8,1189.2031283848257) translate(91.95 14.4)"/><use xlink:href="#bc" transform="matrix(1,0,0,1,1367.8,1189.2031283848257) translate(102.95 14.4)"/><use xlink:href="#bE" transform="matrix(1,0,0,1,1367.8,1189.2031283848257) translate(136.95 14.4)"/><use xlink:href="#aG" transform="matrix(1,0,0,1,1367.8,1189.2031283848257) translate(164.89999999999998 14.4)"/></g><path d="M340 760h224l16 16v64H340z" stroke="#d9be60" stroke-width="2" fill="#ffdf71"/><path d="M564 760l16 16h-16z" fill="#d9be60"/><g><use xlink:href="#bF" transform="matrix(1,0,0,1,345,765) translate(6.599999999999994 27.799999999999997)"/><use xlink:href="#bG" transform="matrix(1,0,0,1,345,765) translate(34.55 27.799999999999997)"/><use xlink:href="#af" transform="matrix(1,0,0,1,345,765) translate(73.55 27.799999999999997)"/><use xlink:href="#bH" transform="matrix(1,0,0,1,345,765) translate(103.55 27.799999999999997)"/><use xlink:href="#bI" transform="matrix(1,0,0,1,345,765) translate(179.4 27.799999999999997)"/><use xlink:href="#bJ" transform="matrix(1,0,0,1,345,765) translate(203.4 27.799999999999997)"/><use xlink:href="#bK" transform="matrix(1,0,0,1,345,765) translate(25.474999999999994 49.4)"/><use xlink:href="#bL" transform="matrix(1,0,0,1,345,765) translate(59.474999999999994 49.4)"/><use xlink:href="#bM" transform="matrix(1,0,0,1,345,765) translate(123.325 49.4)"/><use xlink:href="#bN" transform="matrix(1,0,0,1,345,765) translate(149.675 49.4)"/></g><path d="M329 1105.33h302l16 16v64H329z" stroke="#d9be60" stroke-width="2" fill="#ffdf71"/><path d="M631 1105.33l16 16h-16z" fill="#d9be60"/><g><use xlink:href="#bO" transform="matrix(1,0,0,1,334,1110.3333333333333) translate(4.199999999999989 27.799999999999997)"/><use xlink:href="#af" transform="matrix(1,0,0,1,334,1110.3333333333333) translate(65.14999999999999 27.799999999999997)"/><use xlink:href="#bP" transform="matrix(1,0,0,1,334,1110.3333333333333) translate(95.14999999999999 27.799999999999997)"/><use xlink:href="#ah" transform="matrix(1,0,0,1,334,1110.3333333333333) translate(139.05 27.799999999999997)"/><use xlink:href="#bQ" transform="matrix(1,0,0,1,334,1110.3333333333333) translate(193.95000000000002 27.799999999999997)"/><use xlink:href="#bR" transform="matrix(1,0,0,1,334,1110.3333333333333) translate(278.8 27.799999999999997)"/><use xlink:href="#bS" transform="matrix(1,0,0,1,334,1110.3333333333333) translate(27.125 49.4)"/><use xlink:href="#W" transform="matrix(1,0,0,1,334,1110.3333333333333) translate(87.025 49.4)"/><use xlink:href="#bT" transform="matrix(1,0,0,1,334,1110.3333333333333) translate(120.025 49.4)"/><use xlink:href="#af" transform="matrix(1,0,0,1,334,1110.3333333333333) translate(145.025 49.4)"/><use xlink:href="#bS" transform="matrix(1,0,0,1,334,1110.3333333333333) translate(175.025 49.4)"/><use xlink:href="#bU" transform="matrix(1,0,0,1,334,1110.3333333333333) translate(234.925 49.4)"/></g><path d="M340 940h244l16 16v64H340z" stroke="#d9be60" stroke-width="2" fill="#ffdf71"/><path d="M584 940l16 16h-16z" fill="#d9be60"/><g><use xlink:href="#bF" transform="matrix(1,0,0,1,345,945) translate(5.699999999999989 27.799999999999997)"/><use xlink:href="#bV" transform="matrix(1,0,0,1,345,945) translate(33.64999999999999 27.799999999999997)"/><use xlink:href="#P" transform="matrix(1,0,0,1,345,945) translate(106.5 27.799999999999997)"/><use xlink:href="#M" transform="matrix(1,0,0,1,345,945) translate(120.45 27.799999999999997)"/><use xlink:href="#N" transform="matrix(1,0,0,1,345,945) translate(172.4 27.799999999999997)"/><use xlink:href="#bW" transform="matrix(1,0,0,1,345,945) translate(192.4 27.799999999999997)"/><use xlink:href="#bX" transform="matrix(1,0,0,1,345,945) translate(225.3 27.799999999999997)"/><use xlink:href="#bY" transform="matrix(1,0,0,1,345,945) translate(25.174999999999997 49.4)"/><use xlink:href="#bZ" transform="matrix(1,0,0,1,345,945) translate(67.07499999999999 49.4)"/><use xlink:href="#af" transform="matrix(1,0,0,1,345,945) translate(128.97500000000002 49.4)"/><use xlink:href="#ca" transform="matrix(1,0,0,1,345,945) translate(158.97500000000002 49.4)"/></g><defs><path fill="#0c7cba" d="M33 0v-248h34V0H33" id="cb"/><path fill="#0c7cba" d="M117-194c89-4 53 116 60 194h-32v-121c0-31-8-49-39-48C34-167 62-67 57 0H25l-1-190h30c1 10-1 24 2 32 11-22 29-35 61-36" id="cc"/><path fill="#0c7cba" d="M108 0H70L1-190h34L89-25l56-165h34" id="cd"/><path fill="#0c7cba" d="M24-231v-30h32v30H24zM24 0v-190h32V0H24" id="ce"/><path fill="#0c7cba" d="M59-47c-2 24 18 29 38 22v24C64 9 27 4 27-40v-127H5v-23h24l9-43h21v43h35v23H59v120" id="cf"/><path fill="#0c7cba" d="M177-190C167-65 218 103 67 71c-23-6-38-20-44-43l32-5c15 47 100 32 89-28v-30C133-14 115 1 83 1 29 1 15-40 15-95c0-56 16-97 71-98 29-1 48 16 59 35 1-10 0-23 2-32h30zM94-22c36 0 50-32 50-73 0-42-14-75-50-75-39 0-46 34-46 75s6 73 46 73" id="cg"/><g id="a"><use transform="matrix(0.07407407407407408,0,0,0.07407407407407408,0,0)" xlink:href="#cb"/><use transform="matrix(0.07407407407407408,0,0,0.07407407407407408,7.407407407407408,0)" xlink:href="#cc"/><use transform="matrix(0.07407407407407408,0,0,0.07407407407407408,22.222222222222225,0)" xlink:href="#cd"/><use transform="matrix(0.07407407407407408,0,0,0.07407407407407408,35.55555555555556,0)" xlink:href="#ce"/><use transform="matrix(0.07407407407407408,0,0,0.07407407407407408,41.40740740740741,0)" xlink:href="#cf"/><use transform="matrix(0.07407407407407408,0,0,0.07407407407407408,48.814814814814824,0)" xlink:href="#ce"/><use transform="matrix(0.07407407407407408,0,0,0.07407407407407408,54.666666666666686,0)" xlink:href="#cc"/><use transform="matrix(0.07407407407407408,0,0,0.07407407407407408,69.4814814814815,0)" xlink:href="#cg"/></g><path fill="#0c7cba" d="M141-36C126-15 110 5 73 4 37 3 15-17 15-53c-1-64 63-63 125-63 3-35-9-54-41-54-24 1-41 7-42 31l-33-3c5-37 33-52 76-52 45 0 72 20 72 64v82c-1 20 7 32 28 27v20c-31 9-61-2-59-35zM48-53c0 20 12 33 32 33 41-3 63-29 60-74-43 2-92-5-92 41" id="ch"/><use transform="matrix(0.07407407407407408,0,0,0.07407407407407408,0,0)" xlink:href="#ch" id="b"/><path fill="#0c7cba" d="M100-194c63 0 86 42 84 106H49c0 40 14 67 53 68 26 1 43-12 49-29l28 8c-11 28-37 45-77 45C44 4 14-33 15-96c1-61 26-98 85-98zm52 81c6-60-76-77-97-28-3 7-6 17-6 28h103" id="ci"/><path fill="#0c7cba" d="M206 0h-36l-40-164L89 0H53L-1-190h32L70-26l43-164h34l41 164 42-164h31" id="cj"/><g id="c"><use transform="matrix(0.07407407407407408,0,0,0.07407407407407408,0,0)" xlink:href="#cc"/><use transform="matrix(0.07407407407407408,0,0,0.07407407407407408,14.814814814814817,0)" xlink:href="#ci"/><use transform="matrix(0.07407407407407408,0,0,0.07407407407407408,29.629629629629633,0)" xlink:href="#cj"/></g><path fill="#0c7cba" d="M84 4C-5 8 30-112 23-190h32v120c0 31 7 50 39 49 72-2 45-101 50-169h31l1 190h-30c-1-10 1-25-2-33-11 22-28 36-60 37" id="ck"/><path fill="#0c7cba" d="M135-143c-3-34-86-38-87 0 15 53 115 12 119 90S17 21 10-45l28-5c4 36 97 45 98 0-10-56-113-15-118-90-4-57 82-63 122-42 12 7 21 19 24 35" id="cl"/><path fill="#0c7cba" d="M114-163C36-179 61-72 57 0H25l-1-190h30c1 12-1 29 2 39 6-27 23-49 58-41v29" id="cm"/><g id="d"><use transform="matrix(0.07407407407407408,0,0,0.07407407407407408,0,0)" xlink:href="#ck"/><use transform="matrix(0.07407407407407408,0,0,0.07407407407407408,14.814814814814817,0)" xlink:href="#cl"/><use transform="matrix(0.07407407407407408,0,0,0.07407407407407408,28.148148148148152,0)" xlink:href="#ci"/><use transform="matrix(0.07407407407407408,0,0,0.07407407407407408,42.96296296296297,0)" xlink:href="#cm"/></g><path fill="#0c7cba" d="M100-194c62-1 85 37 85 99 1 63-27 99-86 99S16-35 15-95c0-66 28-99 85-99zM99-20c44 1 53-31 53-75 0-43-8-75-51-75s-53 32-53 75 10 74 51 75" id="cn"/><g id="e"><use transform="matrix(0.07407407407407408,0,0,0.07407407407407408,0,0)" xlink:href="#cf"/><use transform="matrix(0.07407407407407408,0,0,0.07407407407407408,7.407407407407408,0)" xlink:href="#cn"/></g><path fill="#0c7cba" d="M115-194c55 1 70 41 70 98S169 2 115 4C84 4 66-9 55-30l1 105H24l-1-265h31l2 30c10-21 28-34 59-34zm-8 174c40 0 45-34 45-75s-6-73-45-74c-42 0-51 32-51 76 0 43 10 73 51 73" id="co"/><g id="f"><use transform="matrix(0.07407407407407408,0,0,0.07407407407407408,0,0)" xlink:href="#cg"/><use transform="matrix(0.07407407407407408,0,0,0.07407407407407408,14.814814814814817,0)" xlink:href="#cm"/><use transform="matrix(0.07407407407407408,0,0,0.07407407407407408,23.629629629629633,0)" xlink:href="#cn"/><use transform="matrix(0.07407407407407408,0,0,0.07407407407407408,38.44444444444445,0)" xlink:href="#ck"/><use transform="matrix(0.07407407407407408,0,0,0.07407407407407408,53.25925925925927,0)" xlink:href="#co"/></g><path fill="#0c7cba" d="M232-93c-1 65-40 97-104 97C67 4 28-28 28-90v-158h33c8 89-33 224 67 224 102 0 64-133 71-224h33v155" id="cp"/><g id="g"><use transform="matrix(0.04938271604938272,0,0,0.04938271604938272,0,0)" xlink:href="#cp"/><use transform="matrix(0.04938271604938272,0,0,0.04938271604938272,12.790123456790125,0)" xlink:href="#cl"/><use transform="matrix(0.04938271604938272,0,0,0.04938271604938272,21.679012345679013,0)" xlink:href="#ci"/><use transform="matrix(0.04938271604938272,0,0,0.04938271604938272,31.555555555555557,0)" xlink:href="#cm"/></g><path fill="#0c7cba" d="M27 0v-27h64v-190l-56 39v-29l58-41h29v221h61V0H27" id="cq"/><use transform="matrix(0.04938271604938272,0,0,0.04938271604938272,0,0)" xlink:href="#cq" id="h"/><g id="i"><use transform="matrix(0.04938271604938272,0,0,0.04938271604938272,0,0)" xlink:href="#ce"/><use transform="matrix(0.04938271604938272,0,0,0.04938271604938272,3.901234567901235,0)" xlink:href="#cc"/><use transform="matrix(0.04938271604938272,0,0,0.04938271604938272,13.777777777777779,0)" xlink:href="#cd"/><use transform="matrix(0.04938271604938272,0,0,0.04938271604938272,22.666666666666668,0)" xlink:href="#ce"/><use transform="matrix(0.04938271604938272,0,0,0.04938271604938272,26.567901234567902,0)" xlink:href="#cf"/><use transform="matrix(0.04938271604938272,0,0,0.04938271604938272,31.506172839506174,0)" xlink:href="#ci"/><use transform="matrix(0.04938271604938272,0,0,0.04938271604938272,41.38271604938272,0)" xlink:href="#cl"/></g><g id="j"><use transform="matrix(0.04938271604938272,0,0,0.04938271604938272,0,0)" xlink:href="#ck"/><use transform="matrix(0.04938271604938272,0,0,0.04938271604938272,9.876543209876544,0)" xlink:href="#cl"/><use transform="matrix(0.04938271604938272,0,0,0.04938271604938272,18.765432098765434,0)" xlink:href="#ci"/><use transform="matrix(0.04938271604938272,0,0,0.04938271604938272,28.641975308641978,0)" xlink:href="#cm"/></g><path fill="#0c7cba" d="M101-251c82-7 93 87 43 132L82-64C71-53 59-42 53-27h129V0H18c2-99 128-94 128-182 0-28-16-43-45-43s-46 15-49 41l-32-3c6-41 34-60 81-64" id="cr"/><use transform="matrix(0.04938271604938272,0,0,0.04938271604938272,0,0)" xlink:href="#cr" id="k"/><g id="l"><use transform="matrix(0.04938271604938272,0,0,0.04938271604938272,0,0)" xlink:href="#cf"/><use transform="matrix(0.04938271604938272,0,0,0.04938271604938272,4.938271604938272,0)" xlink:href="#cn"/></g><path fill="#0c7cba" d="M24-231v-30h32v30H24zM-9 49c24 4 33-6 33-30v-209h32V24c2 40-23 58-65 49V49" id="cs"/><g id="m"><use transform="matrix(0.04938271604938272,0,0,0.04938271604938272,0,0)" xlink:href="#cs"/><use transform="matrix(0.04938271604938272,0,0,0.04938271604938272,3.901234567901235,0)" xlink:href="#cn"/><use transform="matrix(0.04938271604938272,0,0,0.04938271604938272,13.777777777777779,0)" xlink:href="#ce"/><use transform="matrix(0.04938271604938272,0,0,0.04938271604938272,17.679012345679013,0)" xlink:href="#cc"/></g><path fill="#0c7cba" d="M106-169C34-169 62-67 57 0H25v-261h32l-1 103c12-21 28-36 61-36 89 0 53 116 60 194h-32v-121c2-32-8-49-39-48" id="ct"/><g id="n"><use transform="matrix(0.04938271604938272,0,0,0.04938271604938272,0,0)" xlink:href="#cf"/><use transform="matrix(0.04938271604938272,0,0,0.04938271604938272,4.938271604938272,0)" xlink:href="#ct"/><use transform="matrix(0.04938271604938272,0,0,0.04938271604938272,14.814814814814817,0)" xlink:href="#ci"/></g><g id="o"><use transform="matrix(0.04938271604938272,0,0,0.04938271604938272,0,0)" xlink:href="#cg"/><use transform="matrix(0.04938271604938272,0,0,0.04938271604938272,9.876543209876544,0)" xlink:href="#cm"/><use transform="matrix(0.04938271604938272,0,0,0.04938271604938272,15.753086419753087,0)" xlink:href="#cn"/><use transform="matrix(0.04938271604938272,0,0,0.04938271604938272,25.629629629629633,0)" xlink:href="#ck"/><use transform="matrix(0.04938271604938272,0,0,0.04938271604938272,35.50617283950618,0)" xlink:href="#co"/></g><path fill="#0c7cba" d="M143 4C61 4 22-44 18-125c-5-107 100-154 193-111 17 8 29 25 37 43l-32 9c-13-25-37-40-76-40-61 0-88 39-88 99 0 61 29 100 91 101 35 0 62-11 79-27v-45h-74v-28h105v86C228-13 192 4 143 4" id="cu"/><g id="p"><use transform="matrix(0.04938271604938272,0,0,0.04938271604938272,0,0)" xlink:href="#cu"/><use transform="matrix(0.04938271604938272,0,0,0.04938271604938272,13.827160493827162,0)" xlink:href="#cq"/></g><path d="M143 4C61 4 22-44 18-125c-5-107 100-154 193-111 17 8 29 25 37 43l-32 9c-13-25-37-40-76-40-61 0-88 39-88 99 0 61 29 100 91 101 35 0 62-11 79-27v-45h-74v-28h105v86C228-13 192 4 143 4" id="cv"/><path d="M114-163C36-179 61-72 57 0H25l-1-190h30c1 12-1 29 2 39 6-27 23-49 58-41v29" id="cw"/><path d="M100-194c62-1 85 37 85 99 1 63-27 99-86 99S16-35 15-95c0-66 28-99 85-99zM99-20c44 1 53-31 53-75 0-43-8-75-51-75s-53 32-53 75 10 74 51 75" id="cx"/><path d="M84 4C-5 8 30-112 23-190h32v120c0 31 7 50 39 49 72-2 45-101 50-169h31l1 190h-30c-1-10 1-25-2-33-11 22-28 36-60 37" id="cy"/><path d="M115-194c55 1 70 41 70 98S169 2 115 4C84 4 66-9 55-30l1 105H24l-1-265h31l2 30c10-21 28-34 59-34zm-8 174c40 0 45-34 45-75s-6-73-45-74c-42 0-51 32-51 76 0 43 10 73 51 73" id="cz"/><g id="q"><use transform="matrix(0.05,0,0,0.05,0,0)" xlink:href="#cv"/><use transform="matrix(0.05,0,0,0.05,14,0)" xlink:href="#cw"/><use transform="matrix(0.05,0,0,0.05,19.95,0)" xlink:href="#cx"/><use transform="matrix(0.05,0,0,0.05,29.950000000000003,0)" xlink:href="#cy"/><use transform="matrix(0.05,0,0,0.05,39.95,0)" xlink:href="#cz"/></g><path d="M135-143c-3-34-86-38-87 0 15 53 115 12 119 90S17 21 10-45l28-5c4 36 97 45 98 0-10-56-113-15-118-90-4-57 82-63 122-42 12 7 21 19 24 35" id="cA"/><path d="M100-194c63 0 86 42 84 106H49c0 40 14 67 53 68 26 1 43-12 49-29l28 8c-11 28-37 45-77 45C44 4 14-33 15-96c1-61 26-98 85-98zm52 81c6-60-76-77-97-28-3 7-6 17-6 28h103" id="cB"/><path d="M108 0H70L1-190h34L89-25l56-165h34" id="cC"/><g id="r"><use transform="matrix(0.05,0,0,0.05,0,0)" xlink:href="#cA"/><use transform="matrix(0.05,0,0,0.05,9,0)" xlink:href="#cB"/><use transform="matrix(0.05,0,0,0.05,19,0)" xlink:href="#cw"/><use transform="matrix(0.05,0,0,0.05,24.95,0)" xlink:href="#cC"/><use transform="matrix(0.05,0,0,0.05,33.95,0)" xlink:href="#cB"/><use transform="matrix(0.05,0,0,0.05,43.95,0)" xlink:href="#cw"/></g><path fill="#0c7cba" d="M33-154v-36h34v36H33zM33 0v-36h34V0H33" id="cD"/><g id="s"><use transform="matrix(0.05,0,0,0.05,0,0)" xlink:href="#cr"/><use transform="matrix(0.05,0,0,0.05,10,0)" xlink:href="#cD"/></g><path d="M24 0v-248h52V0H24" id="cE"/><path d="M175 0L67-191c6 58 2 128 3 191H24v-248h59L193-55c-6-58-2-129-3-193h46V0h-61" id="cF"/><path d="M147 0H94L2-248h55l64 206c17-72 42-137 63-206h54" id="cG"/><path d="M136-208V0H84v-208H4v-40h212v40h-80" id="cH"/><path d="M24 0v-248h195v40H76v63h132v40H76v65h150V0H24" id="cI"/><g id="t"><use transform="matrix(0.05,0,0,0.05,0,0)" xlink:href="#cE"/><use transform="matrix(0.05,0,0,0.05,5,0)" xlink:href="#cF"/><use transform="matrix(0.05,0,0,0.05,17.950000000000003,0)" xlink:href="#cG"/><use transform="matrix(0.05,0,0,0.05,29.950000000000003,0)" xlink:href="#cE"/><use transform="matrix(0.05,0,0,0.05,34.95,0)" xlink:href="#cH"/><use transform="matrix(0.05,0,0,0.05,45.900000000000006,0)" xlink:href="#cI"/></g><path d="M212-179c-10-28-35-45-73-45-59 0-87 40-87 99 0 60 29 101 89 101 43 0 62-24 78-52l27 14C228-24 195 4 139 4 59 4 22-46 18-125c-6-104 99-153 187-111 19 9 31 26 39 46" id="cJ"/><path d="M27 0v-27h64v-190l-56 39v-29l58-41h29v221h61V0H27" id="cK"/><path d="M68-38c1 34 0 65-14 84H32c9-13 17-26 17-46H33v-38h35" id="cL"/><g id="u"><use transform="matrix(0.05,0,0,0.05,0,0)" xlink:href="#cJ"/><use transform="matrix(0.05,0,0,0.05,12.950000000000001,0)" xlink:href="#cK"/><use transform="matrix(0.05,0,0,0.05,22.950000000000003,0)" xlink:href="#cL"/></g><path d="M101-251c82-7 93 87 43 132L82-64C71-53 59-42 53-27h129V0H18c2-99 128-94 128-182 0-28-16-43-45-43s-46 15-49 41l-32-3c6-41 34-60 81-64" id="cM"/><g id="v"><use transform="matrix(0.05,0,0,0.05,0,0)" xlink:href="#cJ"/><use transform="matrix(0.05,0,0,0.05,12.950000000000001,0)" xlink:href="#cM"/><use transform="matrix(0.05,0,0,0.05,22.950000000000003,0)" xlink:href="#cL"/></g><path d="M16-82v-28h88v28H16" id="cN"/><path d="M210-169c-67 3-38 105-44 169h-31v-121c0-29-5-50-35-48C34-165 62-65 56 0H25l-1-190h30c1 10-1 24 2 32 10-44 99-50 107 0 11-21 27-35 58-36 85-2 47 119 55 194h-31v-121c0-29-5-49-35-48" id="cO"/><path d="M141-36C126-15 110 5 73 4 37 3 15-17 15-53c-1-64 63-63 125-63 3-35-9-54-41-54-24 1-41 7-42 31l-33-3c5-37 33-52 76-52 45 0 72 20 72 64v82c-1 20 7 32 28 27v20c-31 9-61-2-59-35zM48-53c0 20 12 33 32 33 41-3 63-29 60-74-43 2-92-5-92 41" id="cP"/><path d="M24-231v-30h32v30H24zM24 0v-190h32V0H24" id="cQ"/><path d="M24 0v-261h32V0H24" id="cR"/><g id="w"><use transform="matrix(0.05,0,0,0.05,0,0)" xlink:href="#cJ"/><use transform="matrix(0.05,0,0,0.05,12.950000000000001,0)" xlink:href="#cM"/><use transform="matrix(0.05,0,0,0.05,22.950000000000003,0)" xlink:href="#cN"/><use transform="matrix(0.05,0,0,0.05,28.900000000000002,0)" xlink:href="#cB"/><use transform="matrix(0.05,0,0,0.05,38.900000000000006,0)" xlink:href="#cO"/><use transform="matrix(0.05,0,0,0.05,53.85,0)" xlink:href="#cP"/><use transform="matrix(0.05,0,0,0.05,63.85,0)" xlink:href="#cQ"/><use transform="matrix(0.05,0,0,0.05,67.80000000000001,0)" xlink:href="#cR"/><use transform="matrix(0.05,0,0,0.05,71.75000000000001,0)" xlink:href="#cL"/></g><path d="M39-94c74 12-11 154 75 146v23c-44 4-70-10-70-52C44-23 55-84 6-82v-22c81 4-7-162 84-157h24v23c-82-15-2 131-75 144" id="cS"/><use transform="matrix(0.05,0,0,0.05,0,0)" xlink:href="#cS" id="x"/><g id="y"><use transform="matrix(0.05,0,0,0.05,0,0)" xlink:href="#cJ"/><use transform="matrix(0.05,0,0,0.05,12.950000000000001,0)" xlink:href="#cM"/><use transform="matrix(0.05,0,0,0.05,22.950000000000003,0)" xlink:href="#cN"/><use transform="matrix(0.05,0,0,0.05,28.900000000000002,0)" xlink:href="#cB"/><use transform="matrix(0.05,0,0,0.05,38.900000000000006,0)" xlink:href="#cO"/><use transform="matrix(0.05,0,0,0.05,53.85,0)" xlink:href="#cP"/><use transform="matrix(0.05,0,0,0.05,63.85,0)" xlink:href="#cQ"/><use transform="matrix(0.05,0,0,0.05,67.80000000000001,0)" xlink:href="#cR"/></g><path d="M76-40C78 24 84 88 6 75V52C86 64 9-79 80-94c-40-6-34-59-34-106 1-29-11-41-40-38v-23c44-4 70 10 70 52 0 47-12 108 38 105v22c-26 1-39 14-38 42" id="cT"/><path d="M63-70H37l-4-178h34zM33 0v-35h34V0H33" id="cU"/><g id="z"><use transform="matrix(0.05,0,0,0.05,0,0)" xlink:href="#cT"/><use transform="matrix(0.034999999999999996,0,0,0.034999999999999996,6,2.5199999999999996)" xlink:href="#cU"/><use transform="matrix(0.034999999999999996,0,0,0.034999999999999996,9.5,2.5199999999999996)" xlink:href="#cJ"/><use transform="matrix(0.034999999999999996,0,0,0.034999999999999996,18.564999999999998,2.5199999999999996)" xlink:href="#cK"/></g><path d="M47-170H22l-4-78h33" id="cV"/><g id="A"><use transform="matrix(0.05,0,0,0.05,0,0)" xlink:href="#cJ"/><use transform="matrix(0.05,0,0,0.05,12.950000000000001,0)" xlink:href="#cM"/><use transform="matrix(0.05,0,0,0.05,22.950000000000003,0)" xlink:href="#cV"/><use transform="matrix(0.05,0,0,0.05,26.35,0)" xlink:href="#cA"/></g><g id="B"><use transform="matrix(0.05,0,0,0.05,0,0)" xlink:href="#cB"/><use transform="matrix(0.05,0,0,0.05,10,0)" xlink:href="#cN"/><use transform="matrix(0.05,0,0,0.05,15.949999999999998,0)" xlink:href="#cO"/><use transform="matrix(0.05,0,0,0.05,30.899999999999995,0)" xlink:href="#cP"/><use transform="matrix(0.05,0,0,0.05,40.9,0)" xlink:href="#cQ"/><use transform="matrix(0.05,0,0,0.05,44.85,0)" xlink:href="#cR"/></g><path d="M85-194c31 0 48 13 60 33l-1-100h32l1 261h-30c-2-10 0-23-3-31C134-8 116 4 85 4 32 4 16-35 15-94c0-66 23-100 70-100zm9 24c-40 0-46 34-46 75 0 40 6 74 45 74 42 0 51-32 51-76 0-42-9-74-50-73" id="cW"/><g id="C"><use transform="matrix(0.05,0,0,0.05,0,0)" xlink:href="#cP"/><use transform="matrix(0.05,0,0,0.05,10,0)" xlink:href="#cW"/><use transform="matrix(0.05,0,0,0.05,20,0)" xlink:href="#cW"/><use transform="matrix(0.05,0,0,0.05,30,0)" xlink:href="#cw"/><use transform="matrix(0.05,0,0,0.05,35.95,0)" xlink:href="#cB"/><use transform="matrix(0.05,0,0,0.05,45.95,0)" xlink:href="#cA"/><use transform="matrix(0.05,0,0,0.05,54.95,0)" xlink:href="#cA"/></g><path fill="#0c7cba" d="M54-142c48-35 137-8 131 61C196 18 31 33 14-55l32-4c7 23 22 37 52 37 35-1 51-22 54-58 4-55-73-65-99-34H22l8-134h141v27H59" id="cX"/><path fill="#0c7cba" d="M33 0v-38h34V0H33" id="cY"/><g id="D"><use transform="matrix(0.05,0,0,0.05,0,0)" xlink:href="#cX"/><use transform="matrix(0.05,0,0,0.05,10,0)" xlink:href="#cY"/></g><path d="M176-78C186 10 51 31 16-35c-5-9-9-19-11-32l52-8c4 21 12 37 35 38 23 0 32-16 32-40v-130H75v-41h101v170" id="cZ"/><path d="M140-251c80 0 125 45 125 126S219 4 139 4C58 4 15-44 15-125s44-126 125-126zm-1 214c52 0 73-35 73-88 0-50-21-86-72-86-52 0-73 35-73 86s22 88 72 88" id="da"/><g id="E"><use transform="matrix(0.05,0,0,0.05,0,0)" xlink:href="#cZ"/><use transform="matrix(0.05,0,0,0.05,10,0)" xlink:href="#da"/><use transform="matrix(0.05,0,0,0.05,24,0)" xlink:href="#cE"/><use transform="matrix(0.05,0,0,0.05,29,0)" xlink:href="#cF"/></g><path d="M96-169c-40 0-48 33-48 73s9 75 48 75c24 0 41-14 43-38l32 2c-6 37-31 61-74 61-59 0-76-41-82-99-10-93 101-131 147-64 4 7 5 14 7 22l-32 3c-4-21-16-35-41-35" id="db"/><path d="M59-47c-2 24 18 29 38 22v24C64 9 27 4 27-40v-127H5v-23h24l9-43h21v43h35v23H59v120" id="dc"/><g id="F"><use transform="matrix(0.05,0,0,0.05,0,0)" xlink:href="#cA"/><use transform="matrix(0.05,0,0,0.05,9,0)" xlink:href="#cB"/><use transform="matrix(0.05,0,0,0.05,19,0)" xlink:href="#db"/><use transform="matrix(0.05,0,0,0.05,28,0)" xlink:href="#cw"/><use transform="matrix(0.05,0,0,0.05,33.95,0)" xlink:href="#cB"/><use transform="matrix(0.05,0,0,0.05,43.95,0)" xlink:href="#dc"/></g><g id="G"><use transform="matrix(0.05,0,0,0.05,0,0)" xlink:href="#cq"/><use transform="matrix(0.05,0,0,0.05,10,0)" xlink:href="#cD"/></g><g id="H"><use transform="matrix(0.05,0,0,0.05,0,0)" xlink:href="#cJ"/><use transform="matrix(0.05,0,0,0.05,12.950000000000001,0)" xlink:href="#cM"/></g><g id="I"><use transform="matrix(0.05,0,0,0.05,0,0)" xlink:href="#cJ"/><use transform="matrix(0.05,0,0,0.05,12.950000000000001,0)" xlink:href="#cK"/></g><path d="M33-154v-36h34v36H33zM33 0v-36h34V0H33" id="dd"/><g id="J"><use transform="matrix(0.05,0,0,0.05,0,0)" xlink:href="#cK"/><use transform="matrix(0.05,0,0,0.05,10,0)" xlink:href="#dd"/></g><path d="M33 0v-248h34V0H33" id="de"/><path d="M101-234c-31-9-42 10-38 44h38v23H63V0H32v-167H5v-23h27c-7-52 17-82 69-68v24" id="df"/><g id="K"><use transform="matrix(0.05,0,0,0.05,0,0)" xlink:href="#de"/><use transform="matrix(0.05,0,0,0.05,5,0)" xlink:href="#df"/></g><g id="L"><use transform="matrix(0.05,0,0,0.05,0,0)" xlink:href="#cJ"/><use transform="matrix(0.05,0,0,0.05,12.950000000000001,0)" xlink:href="#cM"/></g><path d="M206 0h-36l-40-164L89 0H53L-1-190h32L70-26l43-164h34l41 164 42-164h31" id="dg"/><path d="M117-194c89-4 53 116 60 194h-32v-121c0-31-8-49-39-48C34-167 62-67 57 0H25l-1-190h30c1 10-1 24 2 32 11-22 29-35 61-36" id="dh"/><g id="M"><use transform="matrix(0.05,0,0,0.05,0,0)" xlink:href="#dg"/><use transform="matrix(0.05,0,0,0.05,12.950000000000001,0)" xlink:href="#cP"/><use transform="matrix(0.05,0,0,0.05,22.950000000000003,0)" xlink:href="#dh"/><use transform="matrix(0.05,0,0,0.05,32.95,0)" xlink:href="#dc"/><use transform="matrix(0.05,0,0,0.05,37.95,0)" xlink:href="#cA"/></g><g id="N"><use transform="matrix(0.05,0,0,0.05,0,0)" xlink:href="#dc"/><use transform="matrix(0.05,0,0,0.05,5,0)" xlink:href="#cx"/></g><path d="M24-231v-30h32v30H24zM-9 49c24 4 33-6 33-30v-209h32V24c2 40-23 58-65 49V49" id="di"/><g id="O"><use transform="matrix(0.05,0,0,0.05,0,0)" xlink:href="#di"/><use transform="matrix(0.05,0,0,0.05,3.95,0)" xlink:href="#cx"/><use transform="matrix(0.05,0,0,0.05,13.949999999999998,0)" xlink:href="#cQ"/><use transform="matrix(0.05,0,0,0.05,17.9,0)" xlink:href="#dh"/><use transform="matrix(0.05,0,0,0.05,27.899999999999995,0)" xlink:href="#cL"/></g><g id="P"><use transform="matrix(0.05,0,0,0.05,0,0)" xlink:href="#cQ"/><use transform="matrix(0.05,0,0,0.05,3.95,0)" xlink:href="#dc"/></g><g id="Q"><use transform="matrix(0.05,0,0,0.05,0,0)" xlink:href="#dh"/><use transform="matrix(0.05,0,0,0.05,10,0)" xlink:href="#cB"/><use transform="matrix(0.05,0,0,0.05,20,0)" xlink:href="#cB"/><use transform="matrix(0.05,0,0,0.05,30,0)" xlink:href="#cW"/><use transform="matrix(0.05,0,0,0.05,40,0)" xlink:href="#cA"/></g><g id="R"><use transform="matrix(0.05,0,0,0.05,0,0)" xlink:href="#dc"/><use transform="matrix(0.05,0,0,0.05,5,0)" xlink:href="#cx"/></g><g id="S"><use transform="matrix(0.05,0,0,0.05,0,0)" xlink:href="#cA"/><use transform="matrix(0.05,0,0,0.05,9,0)" xlink:href="#cB"/><use transform="matrix(0.05,0,0,0.05,19,0)" xlink:href="#dh"/><use transform="matrix(0.05,0,0,0.05,29,0)" xlink:href="#cW"/></g><g id="T"><use transform="matrix(0.05,0,0,0.05,0,0)" xlink:href="#cJ"/><use transform="matrix(0.05,0,0,0.05,12.950000000000001,0)" xlink:href="#cK"/></g><g id="U"><use transform="matrix(0.05,0,0,0.05,0,0)" xlink:href="#cQ"/><use transform="matrix(0.05,0,0,0.05,3.95,0)" xlink:href="#dc"/><use transform="matrix(0.05,0,0,0.05,8.95,0)" xlink:href="#cA"/></g><path d="M115-194c53 0 69 39 70 98 0 66-23 100-70 100C84 3 66-7 56-30L54 0H23l1-261h32v101c10-23 28-34 59-34zm-8 174c40 0 45-34 45-75 0-40-5-75-45-74-42 0-51 32-51 76 0 43 10 73 51 73" id="dj"/><g id="V"><use transform="matrix(0.05,0,0,0.05,0,0)" xlink:href="#cz"/><use transform="matrix(0.05,0,0,0.05,10,0)" xlink:href="#cy"/><use transform="matrix(0.05,0,0,0.05,20,0)" xlink:href="#dj"/><use transform="matrix(0.05,0,0,0.05,30,0)" xlink:href="#cR"/><use transform="matrix(0.05,0,0,0.05,33.95,0)" xlink:href="#cQ"/><use transform="matrix(0.05,0,0,0.05,37.900000000000006,0)" xlink:href="#db"/></g><path d="M143 0L79-87 56-68V0H24v-261h32v163l83-92h37l-77 82L181 0h-38" id="dk"/><path d="M179-190L93 31C79 59 56 82 12 73V49c39 6 53-20 64-50L1-190h34L92-34l54-156h33" id="dl"/><g id="W"><use transform="matrix(0.05,0,0,0.05,0,0)" xlink:href="#dk"/><use transform="matrix(0.05,0,0,0.05,9,0)" xlink:href="#cB"/><use transform="matrix(0.05,0,0,0.05,19,0)" xlink:href="#dl"/></g><path d="M106-169C34-169 62-67 57 0H25v-261h32l-1 103c12-21 28-36 61-36 89 0 53 116 60 194h-32v-121c2-32-8-49-39-48" id="dm"/><path d="M177-190C167-65 218 103 67 71c-23-6-38-20-44-43l32-5c15 47 100 32 89-28v-30C133-14 115 1 83 1 29 1 15-40 15-95c0-56 16-97 71-98 29-1 48 16 59 35 1-10 0-23 2-32h30zM94-22c36 0 50-32 50-73 0-42-14-75-50-75-39 0-46 34-46 75s6 73 46 73" id="dn"/><g id="X"><use transform="matrix(0.05,0,0,0.05,0,0)" xlink:href="#dc"/><use transform="matrix(0.05,0,0,0.05,5,0)" xlink:href="#dm"/><use transform="matrix(0.05,0,0,0.05,15,0)" xlink:href="#cw"/><use transform="matrix(0.05,0,0,0.05,20.95,0)" xlink:href="#cx"/><use transform="matrix(0.05,0,0,0.05,30.950000000000003,0)" xlink:href="#cy"/><use transform="matrix(0.05,0,0,0.05,40.95,0)" xlink:href="#dn"/><use transform="matrix(0.05,0,0,0.05,50.95,0)" xlink:href="#dm"/></g><use transform="matrix(0.05,0,0,0.05,0,0)" xlink:href="#cP" id="Y"/><g id="Z"><use transform="matrix(0.05,0,0,0.05,0,0)" xlink:href="#cW"/><use transform="matrix(0.05,0,0,0.05,10,0)" xlink:href="#cQ"/><use transform="matrix(0.05,0,0,0.05,13.949999999999998,0)" xlink:href="#df"/><use transform="matrix(0.05,0,0,0.05,18.6,0)" xlink:href="#df"/><use transform="matrix(0.05,0,0,0.05,23.6,0)" xlink:href="#cB"/><use transform="matrix(0.05,0,0,0.05,33.6,0)" xlink:href="#cw"/><use transform="matrix(0.05,0,0,0.05,39.550000000000004,0)" xlink:href="#cB"/><use transform="matrix(0.05,0,0,0.05,49.550000000000004,0)" xlink:href="#dh"/><use transform="matrix(0.05,0,0,0.05,59.550000000000004,0)" xlink:href="#dc"/></g><path d="M33 0v-38h34V0H33" id="do"/><g id="aa"><use transform="matrix(0.05,0,0,0.05,0,0)" xlink:href="#db"/><use transform="matrix(0.05,0,0,0.05,9,0)" xlink:href="#dm"/><use transform="matrix(0.05,0,0,0.05,19,0)" xlink:href="#cP"/><use transform="matrix(0.05,0,0,0.05,29,0)" xlink:href="#dh"/><use transform="matrix(0.05,0,0,0.05,39,0)" xlink:href="#dh"/><use transform="matrix(0.05,0,0,0.05,49,0)" xlink:href="#cB"/><use transform="matrix(0.05,0,0,0.05,59,0)" xlink:href="#cR"/><use transform="matrix(0.05,0,0,0.05,62.95,0)" xlink:href="#do"/></g><path d="M266 0h-40l-56-210L115 0H75L2-248h35L96-30l15-64 43-154h32l59 218 59-218h35" id="dp"/><g id="ab"><use transform="matrix(0.05,0,0,0.05,0,0)" xlink:href="#dp"/><use transform="matrix(0.05,0,0,0.05,16.599999999999998,0)" xlink:href="#cB"/></g><g id="ac"><use transform="matrix(0.05,0,0,0.05,0,0)" xlink:href="#cW"/><use transform="matrix(0.05,0,0,0.05,10,0)" xlink:href="#cx"/></g><g id="ad"><use transform="matrix(0.05,0,0,0.05,0,0)" xlink:href="#dc"/><use transform="matrix(0.05,0,0,0.05,5,0)" xlink:href="#dm"/><use transform="matrix(0.05,0,0,0.05,15,0)" xlink:href="#cQ"/><use transform="matrix(0.05,0,0,0.05,18.95,0)" xlink:href="#cA"/></g><g id="ae"><use transform="matrix(0.05,0,0,0.05,0,0)" xlink:href="#cz"/><use transform="matrix(0.05,0,0,0.05,10,0)" xlink:href="#cw"/><use transform="matrix(0.05,0,0,0.05,15.949999999999998,0)" xlink:href="#cB"/><use transform="matrix(0.05,0,0,0.05,25.950000000000003,0)" xlink:href="#cC"/><use transform="matrix(0.05,0,0,0.05,34.95,0)" xlink:href="#cB"/><use transform="matrix(0.05,0,0,0.05,44.95,0)" xlink:href="#dh"/><use transform="matrix(0.05,0,0,0.05,54.95,0)" xlink:href="#dc"/></g><g id="af"><use transform="matrix(0.05,0,0,0.05,0,0)" xlink:href="#dc"/><use transform="matrix(0.05,0,0,0.05,5,0)" xlink:href="#dm"/><use transform="matrix(0.05,0,0,0.05,15,0)" xlink:href="#cB"/></g><g id="ag"><use transform="matrix(0.05,0,0,0.05,0,0)" xlink:href="#dn"/><use transform="matrix(0.05,0,0,0.05,10,0)" xlink:href="#cw"/><use transform="matrix(0.05,0,0,0.05,15.949999999999998,0)" xlink:href="#cx"/><use transform="matrix(0.05,0,0,0.05,25.950000000000003,0)" xlink:href="#cy"/><use transform="matrix(0.05,0,0,0.05,35.95,0)" xlink:href="#cz"/></g><g id="ah"><use transform="matrix(0.05,0,0,0.05,0,0)" xlink:href="#cA"/><use transform="matrix(0.05,0,0,0.05,9,0)" xlink:href="#cB"/><use transform="matrix(0.05,0,0,0.05,19,0)" xlink:href="#cw"/><use transform="matrix(0.05,0,0,0.05,24.95,0)" xlink:href="#cC"/><use transform="matrix(0.05,0,0,0.05,33.95,0)" xlink:href="#cB"/><use transform="matrix(0.05,0,0,0.05,43.95,0)" xlink:href="#cw"/></g><g id="ai"><use transform="matrix(0.05,0,0,0.05,0,0)" xlink:href="#df"/><use transform="matrix(0.05,0,0,0.05,5,0)" xlink:href="#cx"/><use transform="matrix(0.05,0,0,0.05,15,0)" xlink:href="#cw"/><use transform="matrix(0.05,0,0,0.05,20.95,0)" xlink:href="#dn"/><use transform="matrix(0.05,0,0,0.05,30.950000000000003,0)" xlink:href="#cB"/></g><g id="aj"><use transform="matrix(0.05,0,0,0.05,0,0)" xlink:href="#df"/><use transform="matrix(0.05,0,0,0.05,5,0)" xlink:href="#cP"/><use transform="matrix(0.05,0,0,0.05,15,0)" xlink:href="#dk"/><use transform="matrix(0.05,0,0,0.05,24,0)" xlink:href="#cB"/></g><g id="ak"><use transform="matrix(0.05,0,0,0.05,0,0)" xlink:href="#cP"/><use transform="matrix(0.05,0,0,0.05,10,0)" xlink:href="#db"/><use transform="matrix(0.05,0,0,0.05,19,0)" xlink:href="#db"/><use transform="matrix(0.05,0,0,0.05,28,0)" xlink:href="#cx"/><use transform="matrix(0.05,0,0,0.05,38,0)" xlink:href="#cy"/><use transform="matrix(0.05,0,0,0.05,48,0)" xlink:href="#dh"/><use transform="matrix(0.05,0,0,0.05,58,0)" xlink:href="#dc"/></g><g id="al"><use transform="matrix(0.05,0,0,0.05,0,0)" xlink:href="#cx"/><use transform="matrix(0.05,0,0,0.05,10,0)" xlink:href="#dg"/><use transform="matrix(0.05,0,0,0.05,22.950000000000003,0)" xlink:href="#dh"/><use transform="matrix(0.05,0,0,0.05,32.95,0)" xlink:href="#cB"/><use transform="matrix(0.05,0,0,0.05,42.95,0)" xlink:href="#cW"/></g><g id="am"><use transform="matrix(0.05,0,0,0.05,0,0)" xlink:href="#dj"/><use transform="matrix(0.05,0,0,0.05,10,0)" xlink:href="#dl"/></g><g id="an"><use transform="matrix(0.05,0,0,0.05,0,0)" xlink:href="#dm"/><use transform="matrix(0.05,0,0,0.05,10,0)" xlink:href="#cQ"/><use transform="matrix(0.05,0,0,0.05,13.949999999999998,0)" xlink:href="#cO"/></g><path d="M87 75C49 33 22-17 22-94c0-76 28-126 65-167h31c-38 41-64 92-64 168S80 34 118 75H87" id="dq"/><g id="ao"><use transform="matrix(0.05,0,0,0.05,0,0)" xlink:href="#dq"/><use transform="matrix(0.05,0,0,0.05,5.95,0)" xlink:href="#dc"/><use transform="matrix(0.05,0,0,0.05,10.95,0)" xlink:href="#dm"/><use transform="matrix(0.05,0,0,0.05,20.95,0)" xlink:href="#cB"/></g><g id="ap"><use transform="matrix(0.05,0,0,0.05,0,0)" xlink:href="#db"/><use transform="matrix(0.05,0,0,0.05,9,0)" xlink:href="#cx"/><use transform="matrix(0.05,0,0,0.05,19,0)" xlink:href="#cy"/><use transform="matrix(0.05,0,0,0.05,29,0)" xlink:href="#cR"/><use transform="matrix(0.05,0,0,0.05,32.95,0)" xlink:href="#cW"/></g><g id="aq"><use transform="matrix(0.05,0,0,0.05,0,0)" xlink:href="#cA"/><use transform="matrix(0.05,0,0,0.05,9,0)" xlink:href="#dk"/><use transform="matrix(0.05,0,0,0.05,18,0)" xlink:href="#cQ"/><use transform="matrix(0.05,0,0,0.05,21.95,0)" xlink:href="#cz"/></g><path d="M155-56V0h-30v-56H8v-25l114-167h33v167h35v25h-35zm-30-156c-27 46-58 90-88 131h88v-131" id="dr"/><use transform="matrix(0.05,0,0,0.05,0,0)" xlink:href="#dr" id="ar"/><g id="as"><use transform="matrix(0.05,0,0,0.05,0,0)" xlink:href="#cP"/><use transform="matrix(0.05,0,0,0.05,10,0)" xlink:href="#dh"/><use transform="matrix(0.05,0,0,0.05,20,0)" xlink:href="#cW"/></g><g id="at"><use transform="matrix(0.05,0,0,0.05,0,0)" xlink:href="#db"/><use transform="matrix(0.05,0,0,0.05,9,0)" xlink:href="#cw"/><use transform="matrix(0.05,0,0,0.05,14.949999999999998,0)" xlink:href="#cB"/><use transform="matrix(0.05,0,0,0.05,24.95,0)" xlink:href="#cP"/><use transform="matrix(0.05,0,0,0.05,34.95,0)" xlink:href="#dc"/><use transform="matrix(0.05,0,0,0.05,39.95,0)" xlink:href="#cB"/></g><g id="au"><use transform="matrix(0.05,0,0,0.05,0,0)" xlink:href="#cP"/><use transform="matrix(0.05,0,0,0.05,10,0)" xlink:href="#dh"/></g><g id="av"><use transform="matrix(0.05,0,0,0.05,0,0)" xlink:href="#df"/><use transform="matrix(0.05,0,0,0.05,5,0)" xlink:href="#cx"/><use transform="matrix(0.05,0,0,0.05,15,0)" xlink:href="#cw"/></g><g id="aw"><use transform="matrix(0.05,0,0,0.05,0,0)" xlink:href="#dm"/><use transform="matrix(0.05,0,0,0.05,10,0)" xlink:href="#cQ"/><use transform="matrix(0.05,0,0,0.05,13.949999999999998,0)" xlink:href="#cO"/><use transform="matrix(0.05,0,0,0.05,28.899999999999995,0)" xlink:href="#cA"/><use transform="matrix(0.05,0,0,0.05,37.9,0)" xlink:href="#cB"/><use transform="matrix(0.05,0,0,0.05,47.9,0)" xlink:href="#cR"/><use transform="matrix(0.05,0,0,0.05,51.85,0)" xlink:href="#df"/><use transform="matrix(0.05,0,0,0.05,56.85,0)" xlink:href="#cL"/></g><g id="ax"><use transform="matrix(0.05,0,0,0.05,0,0)" xlink:href="#cQ"/><use transform="matrix(0.05,0,0,0.05,3.95,0)" xlink:href="#dh"/><use transform="matrix(0.05,0,0,0.05,13.949999999999998,0)" xlink:href="#cC"/><use transform="matrix(0.05,0,0,0.05,22.95,0)" xlink:href="#cQ"/><use transform="matrix(0.05,0,0,0.05,26.899999999999995,0)" xlink:href="#dc"/><use transform="matrix(0.05,0,0,0.05,31.899999999999995,0)" xlink:href="#cB"/><use transform="matrix(0.05,0,0,0.05,41.9,0)" xlink:href="#cW"/></g><path d="M33-261c38 41 65 92 65 168S71 34 33 75H2C39 34 66-17 66-93S39-220 2-261h31" id="ds"/><g id="ay"><use transform="matrix(0.05,0,0,0.05,0,0)" xlink:href="#cJ"/><use transform="matrix(0.05,0,0,0.05,12.950000000000001,0)" xlink:href="#cK"/><use transform="matrix(0.05,0,0,0.05,22.950000000000003,0)" xlink:href="#ds"/></g><g id="az"><use transform="matrix(0.05,0,0,0.05,0,0)" xlink:href="#cv"/><use transform="matrix(0.05,0,0,0.05,14,0)" xlink:href="#cw"/><use transform="matrix(0.05,0,0,0.05,19.95,0)" xlink:href="#cx"/><use transform="matrix(0.05,0,0,0.05,29.950000000000003,0)" xlink:href="#cy"/><use transform="matrix(0.05,0,0,0.05,39.95,0)" xlink:href="#cz"/></g><path d="M185-189c-5-48-123-54-124 2 14 75 158 14 163 119 3 78-121 87-175 55-17-10-28-26-33-46l33-7c5 56 141 63 141-1 0-78-155-14-162-118-5-82 145-84 179-34 5 7 8 16 11 25" id="dt"/><g id="aA"><use transform="matrix(0.05,0,0,0.05,0,0)" xlink:href="#dt"/><use transform="matrix(0.05,0,0,0.05,12,0)" xlink:href="#cB"/><use transform="matrix(0.05,0,0,0.05,22,0)" xlink:href="#cw"/><use transform="matrix(0.05,0,0,0.05,27.950000000000003,0)" xlink:href="#cC"/><use transform="matrix(0.05,0,0,0.05,36.95,0)" xlink:href="#cB"/><use transform="matrix(0.05,0,0,0.05,46.95,0)" xlink:href="#cw"/></g><path d="M30-248c118-7 216 8 213 122C240-48 200 0 122 0H30v-248zM63-27c89 8 146-16 146-99s-60-101-146-95v194" id="du"/><g id="aB"><use transform="matrix(0.05,0,0,0.05,0,0)" xlink:href="#du"/><use transform="matrix(0.05,0,0,0.05,12.950000000000001,0)" xlink:href="#cP"/><use transform="matrix(0.05,0,0,0.05,22.950000000000003,0)" xlink:href="#dc"/><use transform="matrix(0.05,0,0,0.05,27.950000000000003,0)" xlink:href="#cP"/><use transform="matrix(0.05,0,0,0.05,37.95,0)" xlink:href="#dj"/><use transform="matrix(0.05,0,0,0.05,47.95,0)" xlink:href="#cP"/><use transform="matrix(0.05,0,0,0.05,57.95,0)" xlink:href="#cA"/><use transform="matrix(0.05,0,0,0.05,66.95,0)" xlink:href="#cB"/></g><path fill="#0c7cba" d="M110-160c48 1 74 30 74 79 0 53-28 85-80 85-65 0-83-55-86-122-5-90 50-162 133-122 14 7 22 21 27 39l-31 6c-5-40-67-38-82-6-9 19-15 44-15 74 11-20 30-34 60-33zm-7 138c34 0 49-23 49-58s-16-56-50-56c-29 0-50 16-49 49 1 36 15 65 50 65" id="dv"/><g id="aC"><use transform="matrix(0.05,0,0,0.05,0,0)" xlink:href="#dv"/><use transform="matrix(0.05,0,0,0.05,10,0)" xlink:href="#cY"/></g><g id="aD"><use transform="matrix(0.05,0,0,0.05,0,0)" xlink:href="#cT"/><use transform="matrix(0.034999999999999996,0,0,0.034999999999999996,6,2.5199999999999996)" xlink:href="#cU"/><use transform="matrix(0.034999999999999996,0,0,0.034999999999999996,9.5,2.5199999999999996)" xlink:href="#cJ"/><use transform="matrix(0.034999999999999996,0,0,0.034999999999999996,18.564999999999998,2.5199999999999996)" xlink:href="#cK"/><use transform="matrix(0.05,0,0,0.05,25.564999999999998,0)" xlink:href="#cL"/></g><use transform="matrix(0.05,0,0,0.05,0,0)" xlink:href="#cS" id="aE"/><g id="aF"><use transform="matrix(0.05,0,0,0.05,0,0)" xlink:href="#cT"/><use transform="matrix(0.034999999999999996,0,0,0.034999999999999996,6,2.5199999999999996)" xlink:href="#cU"/><use transform="matrix(0.034999999999999996,0,0,0.034999999999999996,9.5,2.5199999999999996)" xlink:href="#cJ"/><use transform="matrix(0.034999999999999996,0,0,0.034999999999999996,18.564999999999998,2.5199999999999996)" xlink:href="#cK"/></g><g id="aG"><use transform="matrix(0.05,0,0,0.05,0,0)" xlink:href="#cT"/><use transform="matrix(0.034999999999999996,0,0,0.034999999999999996,6,2.5199999999999996)" xlink:href="#cU"/><use transform="matrix(0.034999999999999996,0,0,0.034999999999999996,9.5,2.5199999999999996)" xlink:href="#cv"/><use transform="matrix(0.034999999999999996,0,0,0.034999999999999996,19.299999999999997,2.5199999999999996)" xlink:href="#dt"/></g><path d="M232-93c-1 65-40 97-104 97C67 4 28-28 28-90v-158h33c8 89-33 224 67 224 102 0 64-133 71-224h33v155" id="dw"/><g id="aH"><use transform="matrix(0.05,0,0,0.05,0,0)" xlink:href="#dw"/><use transform="matrix(0.05,0,0,0.05,12.950000000000001,0)" xlink:href="#cA"/><use transform="matrix(0.05,0,0,0.05,21.950000000000003,0)" xlink:href="#cB"/><use transform="matrix(0.05,0,0,0.05,31.950000000000003,0)" xlink:href="#cw"/></g><use transform="matrix(0.05,0,0,0.05,0,0)" xlink:href="#cM" id="aI"/><g id="aJ"><use transform="matrix(0.05,0,0,0.05,0,0)" xlink:href="#dq"/><use transform="matrix(0.05,0,0,0.05,5.95,0)" xlink:href="#cJ"/><use transform="matrix(0.05,0,0,0.05,18.900000000000002,0)" xlink:href="#cM"/><use transform="matrix(0.05,0,0,0.05,28.900000000000002,0)" xlink:href="#ds"/></g><path fill="#0c7cba" d="M64 0c3-98 48-159 88-221H18v-27h164v26C143-157 98-101 97 0H64" id="dx"/><g id="aK"><use transform="matrix(0.05,0,0,0.05,0,0)" xlink:href="#dx"/><use transform="matrix(0.05,0,0,0.05,10,0)" xlink:href="#cY"/></g><path d="M67-125c0 53 21 87 73 88 37 1 54-22 65-47l45 17C233-25 199 4 140 4 58 4 20-42 15-125 8-235 124-281 211-232c18 10 29 29 36 50l-46 12c-8-25-30-41-62-41-52 0-71 34-72 86" id="dy"/><path d="M76-208v77h127v40H76V0H24v-248h183v40H76" id="dz"/><path d="M240-174c0 40-23 61-54 70L253 0h-59l-57-94H76V0H24v-248c93 4 217-23 216 74zM76-134c48-2 112 12 112-38 0-48-66-32-112-35v73" id="dA"/><path d="M230 0l2-204L168 0h-37L68-204 70 0H24v-248h70l56 185 57-185h69V0h-46" id="dB"/><g id="aL"><use transform="matrix(0.05,0,0,0.05,0,0)" xlink:href="#dy"/><use transform="matrix(0.05,0,0,0.05,12.950000000000001,0)" xlink:href="#da"/><use transform="matrix(0.05,0,0,0.05,26.950000000000003,0)" xlink:href="#cF"/><use transform="matrix(0.05,0,0,0.05,39.900000000000006,0)" xlink:href="#dz"/><use transform="matrix(0.05,0,0,0.05,50.85000000000001,0)" xlink:href="#cE"/><use transform="matrix(0.05,0,0,0.05,55.85,0)" xlink:href="#dA"/><use transform="matrix(0.05,0,0,0.05,68.80000000000001,0)" xlink:href="#dB"/></g><g id="aM"><use transform="matrix(0.05,0,0,0.05,0,0)" xlink:href="#cZ"/><use transform="matrix(0.05,0,0,0.05,10,0)" xlink:href="#da"/><use transform="matrix(0.05,0,0,0.05,24,0)" xlink:href="#cE"/><use transform="matrix(0.05,0,0,0.05,29,0)" xlink:href="#cF"/></g><g id="aN"><use transform="matrix(0.05,0,0,0.05,0,0)" xlink:href="#cT"/><use transform="matrix(0.034999999999999996,0,0,0.034999999999999996,6,2.5199999999999996)" xlink:href="#cU"/><use transform="matrix(0.034999999999999996,0,0,0.034999999999999996,9.5,2.5199999999999996)" xlink:href="#cv"/><use transform="matrix(0.034999999999999996,0,0,0.034999999999999996,19.299999999999997,2.5199999999999996)" xlink:href="#dt"/></g><g id="aO"><use transform="matrix(0.05,0,0,0.05,0,0)" xlink:href="#cT"/><use transform="matrix(0.034999999999999996,0,0,0.034999999999999996,6,2.5199999999999996)" xlink:href="#cU"/><use transform="matrix(0.034999999999999996,0,0,0.034999999999999996,9.5,2.5199999999999996)" xlink:href="#cJ"/><use transform="matrix(0.034999999999999996,0,0,0.034999999999999996,18.564999999999998,2.5199999999999996)" xlink:href="#cM"/></g><use transform="matrix(0.05,0,0,0.05,0,0)" xlink:href="#cK" id="aP"/><g id="aQ"><use transform="matrix(0.05,0,0,0.05,0,0)" xlink:href="#dq"/><use transform="matrix(0.05,0,0,0.05,5.95,0)" xlink:href="#cJ"/><use transform="matrix(0.05,0,0,0.05,18.900000000000002,0)" xlink:href="#cK"/><use transform="matrix(0.05,0,0,0.05,28.900000000000002,0)" xlink:href="#ds"/></g><path fill="#0c7cba" d="M155-56V0h-30v-56H8v-25l114-167h33v167h35v25h-35zm-30-156c-27 46-58 90-88 131h88v-131" id="dC"/><g id="aR"><use transform="matrix(0.05,0,0,0.05,0,0)" xlink:href="#dC"/><use transform="matrix(0.05,0,0,0.05,10,0)" xlink:href="#cD"/></g><path d="M205 0l-28-72H64L36 0H1l101-248h38L239 0h-34zm-38-99l-47-123c-12 45-31 82-46 123h93" id="dD"/><path d="M194 0L95-120 63-95V0H30v-248h33v124l119-124h40L117-140 236 0h-42" id="dE"/><g id="aS"><use transform="matrix(0.05,0,0,0.05,0,0)" xlink:href="#dD"/><use transform="matrix(0.05,0,0,0.05,12,0)" xlink:href="#cJ"/><use transform="matrix(0.05,0,0,0.05,24.950000000000003,0)" xlink:href="#dE"/></g><g id="aT"><use transform="matrix(0.05,0,0,0.05,0,0)" xlink:href="#cv"/><use transform="matrix(0.05,0,0,0.05,14,0)" xlink:href="#cR"/><use transform="matrix(0.05,0,0,0.05,17.95,0)" xlink:href="#cx"/><use transform="matrix(0.05,0,0,0.05,27.950000000000003,0)" xlink:href="#dj"/><use transform="matrix(0.05,0,0,0.05,37.95,0)" xlink:href="#cP"/><use transform="matrix(0.05,0,0,0.05,47.95,0)" xlink:href="#cR"/></g><g id="aU"><use transform="matrix(0.05,0,0,0.05,0,0)" xlink:href="#dt"/><use transform="matrix(0.05,0,0,0.05,12,0)" xlink:href="#cB"/><use transform="matrix(0.05,0,0,0.05,22,0)" xlink:href="#cw"/><use transform="matrix(0.05,0,0,0.05,27.950000000000003,0)" xlink:href="#cC"/><use transform="matrix(0.05,0,0,0.05,36.95,0)" xlink:href="#cB"/><use transform="matrix(0.05,0,0,0.05,46.95,0)" xlink:href="#cw"/></g><g id="aV"><use transform="matrix(0.05,0,0,0.05,0,0)" xlink:href="#cv"/><use transform="matrix(0.05,0,0,0.05,14,0)" xlink:href="#cR"/><use transform="matrix(0.05,0,0,0.05,17.95,0)" xlink:href="#cx"/><use transform="matrix(0.05,0,0,0.05,27.950000000000003,0)" xlink:href="#dj"/><use transform="matrix(0.05,0,0,0.05,37.95,0)" xlink:href="#cP"/><use transform="matrix(0.05,0,0,0.05,47.95,0)" xlink:href="#cR"/></g><g id="aW"><use transform="matrix(0.05,0,0,0.05,0,0)" xlink:href="#cA"/><use transform="matrix(0.05,0,0,0.05,9,0)" xlink:href="#cB"/><use transform="matrix(0.05,0,0,0.05,19,0)" xlink:href="#cw"/><use transform="matrix(0.05,0,0,0.05,24.95,0)" xlink:href="#cC"/><use transform="matrix(0.05,0,0,0.05,33.95,0)" xlink:href="#cB"/><use transform="matrix(0.05,0,0,0.05,43.95,0)" xlink:href="#cw"/></g><path fill="#0c7cba" d="M126-127c33 6 58 20 58 59 0 88-139 92-164 29-3-8-5-16-6-25l32-3c6 27 21 44 54 44 32 0 52-15 52-46 0-38-36-46-79-43v-28c39 1 72-4 72-42 0-27-17-43-46-43-28 0-47 15-49 41l-32-3c6-42 35-63 81-64 48-1 79 21 79 65 0 36-21 52-52 59" id="dF"/><g id="aX"><use transform="matrix(0.05,0,0,0.05,0,0)" xlink:href="#dF"/><use transform="matrix(0.05,0,0,0.05,10,0)" xlink:href="#cD"/></g><g id="aY"><use transform="matrix(0.05,0,0,0.05,0,0)" xlink:href="#cA"/><use transform="matrix(0.05,0,0,0.05,9,0)" xlink:href="#cB"/><use transform="matrix(0.05,0,0,0.05,19,0)" xlink:href="#db"/><use transform="matrix(0.05,0,0,0.05,28,0)" xlink:href="#cw"/><use transform="matrix(0.05,0,0,0.05,33.95,0)" xlink:href="#cB"/><use transform="matrix(0.05,0,0,0.05,43.95,0)" xlink:href="#dc"/><use transform="matrix(0.05,0,0,0.05,48.95,0)" xlink:href="#cL"/></g><g id="aZ"><use transform="matrix(0.05,0,0,0.05,0,0)" xlink:href="#cv"/><use transform="matrix(0.05,0,0,0.05,14,0)" xlink:href="#dt"/><use transform="matrix(0.05,0,0,0.05,26,0)" xlink:href="#cL"/></g><path d="M233-177c-1 41-23 64-60 70L243 0h-38l-65-103H63V0H30v-248c88 3 205-21 203 71zM63-129c60-2 137 13 137-47 0-61-80-42-137-45v92" id="dG"/><path d="M30 0v-248h33v221h125V0H30" id="dH"/><g id="ba"><use transform="matrix(0.05,0,0,0.05,0,0)" xlink:href="#cv"/><use transform="matrix(0.05,0,0,0.05,14,0)" xlink:href="#dt"/><use transform="matrix(0.05,0,0,0.05,26,0)" xlink:href="#cN"/><use transform="matrix(0.05,0,0,0.05,31.950000000000003,0)" xlink:href="#dw"/><use transform="matrix(0.05,0,0,0.05,44.9,0)" xlink:href="#dG"/><use transform="matrix(0.05,0,0,0.05,57.85,0)" xlink:href="#dH"/></g><g id="bb"><use transform="matrix(0.05,0,0,0.05,0,0)" xlink:href="#cq"/><use transform="matrix(0.05,0,0,0.05,10,0)" xlink:href="#cr"/><use transform="matrix(0.05,0,0,0.05,20,0)" xlink:href="#cY"/></g><g id="bc"><use transform="matrix(0.05,0,0,0.05,0,0)" xlink:href="#cv"/><use transform="matrix(0.05,0,0,0.05,14,0)" xlink:href="#cK"/><use transform="matrix(0.05,0,0,0.05,24,0)" xlink:href="#cL"/></g><g id="bd"><use transform="matrix(0.05,0,0,0.05,0,0)" xlink:href="#cv"/><use transform="matrix(0.05,0,0,0.05,14,0)" xlink:href="#cK"/></g><path d="M240 0l2-218c-23 76-54 145-80 218h-23L58-218 59 0H30v-248h44l77 211c21-75 51-140 76-211h43V0h-30" id="dI"/><g id="be"><use transform="matrix(0.05,0,0,0.05,0,0)" xlink:href="#cT"/><use transform="matrix(0.034999999999999996,0,0,0.034999999999999996,6,2.5199999999999996)" xlink:href="#cU"/><use transform="matrix(0.034999999999999996,0,0,0.034999999999999996,9.5,2.5199999999999996)" xlink:href="#dI"/><use transform="matrix(0.034999999999999996,0,0,0.034999999999999996,19.964999999999996,2.5199999999999996)" xlink:href="#dt"/></g><g id="bf"><use transform="matrix(0.05,0,0,0.05,0,0)" xlink:href="#cr"/><use transform="matrix(0.05,0,0,0.05,10,0)" xlink:href="#cY"/></g><g id="bg"><use transform="matrix(0.05,0,0,0.05,0,0)" xlink:href="#cA"/><use transform="matrix(0.05,0,0,0.05,9,0)" xlink:href="#cB"/><use transform="matrix(0.05,0,0,0.05,19,0)" xlink:href="#db"/><use transform="matrix(0.05,0,0,0.05,28,0)" xlink:href="#cw"/><use transform="matrix(0.05,0,0,0.05,33.95,0)" xlink:href="#cB"/><use transform="matrix(0.05,0,0,0.05,43.95,0)" xlink:href="#dc"/><use transform="matrix(0.05,0,0,0.05,48.95,0)" xlink:href="#cL"/></g><g id="bh"><use transform="matrix(0.05,0,0,0.05,0,0)" xlink:href="#cq"/><use transform="matrix(0.05,0,0,0.05,8.65,0)" xlink:href="#cq"/><use transform="matrix(0.05,0,0,0.05,18.65,0)" xlink:href="#cY"/></g><path d="M126-127c33 6 58 20 58 59 0 88-139 92-164 29-3-8-5-16-6-25l32-3c6 27 21 44 54 44 32 0 52-15 52-46 0-38-36-46-79-43v-28c39 1 72-4 72-42 0-27-17-43-46-43-28 0-47 15-49 41l-32-3c6-42 35-63 81-64 48-1 79 21 79 65 0 36-21 52-52 59" id="dJ"/><g id="bi"><use transform="matrix(0.05,0,0,0.05,0,0)" xlink:href="#dJ"/><use transform="matrix(0.05,0,0,0.05,10,0)" xlink:href="#dd"/></g><path d="M127-220V0H93v-220H8v-28h204v28h-85" id="dK"/><g id="bj"><use transform="matrix(0.05,0,0,0.05,0,0)" xlink:href="#dK"/><use transform="matrix(0.05,0,0,0.05,10.950000000000001,0)" xlink:href="#dm"/><use transform="matrix(0.05,0,0,0.05,20.950000000000003,0)" xlink:href="#cB"/></g><g id="bk"><use transform="matrix(0.05,0,0,0.05,0,0)" xlink:href="#cA"/><use transform="matrix(0.05,0,0,0.05,9,0)" xlink:href="#cB"/><use transform="matrix(0.05,0,0,0.05,19,0)" xlink:href="#dh"/><use transform="matrix(0.05,0,0,0.05,29,0)" xlink:href="#cW"/><use transform="matrix(0.05,0,0,0.05,39,0)" xlink:href="#cA"/></g><g id="bl"><use transform="matrix(0.05,0,0,0.05,0,0)" xlink:href="#cP"/><use transform="matrix(0.05,0,0,0.05,10,0)" xlink:href="#dh"/></g><g id="bm"><use transform="matrix(0.05,0,0,0.05,0,0)" xlink:href="#cB"/><use transform="matrix(0.05,0,0,0.05,10,0)" xlink:href="#cO"/><use transform="matrix(0.05,0,0,0.05,24.950000000000003,0)" xlink:href="#cP"/><use transform="matrix(0.05,0,0,0.05,34.95,0)" xlink:href="#cQ"/><use transform="matrix(0.05,0,0,0.05,38.900000000000006,0)" xlink:href="#cR"/></g><g id="bn"><use transform="matrix(0.05,0,0,0.05,0,0)" xlink:href="#dg"/><use transform="matrix(0.05,0,0,0.05,12.950000000000001,0)" xlink:href="#cQ"/><use transform="matrix(0.05,0,0,0.05,16.900000000000002,0)" xlink:href="#dc"/><use transform="matrix(0.05,0,0,0.05,21.900000000000002,0)" xlink:href="#dm"/></g><use transform="matrix(0.05,0,0,0.05,0,0)" xlink:href="#cP" id="bo"/><path d="M145-31C134-9 116 4 85 4 32 4 16-35 15-94c0-59 17-99 70-100 32-1 48 14 60 33 0-11-1-24 2-32h30l-1 268h-32zM93-21c41 0 51-33 51-76s-8-73-50-73c-40 0-46 35-46 75s5 74 45 74" id="dL"/><g id="bp"><use transform="matrix(0.05,0,0,0.05,0,0)" xlink:href="#cy"/><use transform="matrix(0.05,0,0,0.05,10,0)" xlink:href="#dh"/><use transform="matrix(0.05,0,0,0.05,20,0)" xlink:href="#cQ"/><use transform="matrix(0.05,0,0,0.05,23.95,0)" xlink:href="#dL"/><use transform="matrix(0.05,0,0,0.05,33.95,0)" xlink:href="#cy"/><use transform="matrix(0.05,0,0,0.05,43.95,0)" xlink:href="#cB"/></g><g id="bq"><use transform="matrix(0.05,0,0,0.05,0,0)" xlink:href="#cA"/><use transform="matrix(0.05,0,0,0.05,9,0)" xlink:href="#cB"/><use transform="matrix(0.05,0,0,0.05,19,0)" xlink:href="#db"/><use transform="matrix(0.05,0,0,0.05,28,0)" xlink:href="#cw"/><use transform="matrix(0.05,0,0,0.05,33.95,0)" xlink:href="#cB"/><use transform="matrix(0.05,0,0,0.05,43.95,0)" xlink:href="#dc"/></g><g id="br"><use transform="matrix(0.05,0,0,0.05,0,0)" xlink:href="#db"/><use transform="matrix(0.05,0,0,0.05,9,0)" xlink:href="#cx"/><use transform="matrix(0.05,0,0,0.05,19,0)" xlink:href="#cW"/><use transform="matrix(0.05,0,0,0.05,29,0)" xlink:href="#cB"/></g><g id="bs"><use transform="matrix(0.05,0,0,0.05,0,0)" xlink:href="#dc"/><use transform="matrix(0.05,0,0,0.05,5,0)" xlink:href="#cx"/></g><g id="bt"><use transform="matrix(0.05,0,0,0.05,0,0)" xlink:href="#cJ"/><use transform="matrix(0.05,0,0,0.05,12.950000000000001,0)" xlink:href="#cM"/><use transform="matrix(0.05,0,0,0.05,22.950000000000003,0)" xlink:href="#cV"/><use transform="matrix(0.05,0,0,0.05,26.35,0)" xlink:href="#cA"/></g><g id="bu"><use transform="matrix(0.05,0,0,0.05,0,0)" xlink:href="#cB"/><use transform="matrix(0.05,0,0,0.05,10,0)" xlink:href="#cO"/><use transform="matrix(0.05,0,0,0.05,24.950000000000003,0)" xlink:href="#cP"/><use transform="matrix(0.05,0,0,0.05,34.95,0)" xlink:href="#cQ"/><use transform="matrix(0.05,0,0,0.05,38.900000000000006,0)" xlink:href="#cR"/></g><g id="bv"><use transform="matrix(0.05,0,0,0.05,0,0)" xlink:href="#cC"/><use transform="matrix(0.05,0,0,0.05,9,0)" xlink:href="#cB"/><use transform="matrix(0.05,0,0,0.05,19,0)" xlink:href="#cw"/><use transform="matrix(0.05,0,0,0.05,24.95,0)" xlink:href="#cQ"/><use transform="matrix(0.05,0,0,0.05,28.899999999999995,0)" xlink:href="#df"/><use transform="matrix(0.05,0,0,0.05,33.9,0)" xlink:href="#dl"/></g><g id="bw"><use transform="matrix(0.05,0,0,0.05,0,0)" xlink:href="#cQ"/><use transform="matrix(0.05,0,0,0.05,3.95,0)" xlink:href="#df"/></g><g id="bx"><use transform="matrix(0.05,0,0,0.05,0,0)" xlink:href="#cQ"/><use transform="matrix(0.05,0,0,0.05,3.95,0)" xlink:href="#cA"/></g><g id="by"><use transform="matrix(0.05,0,0,0.05,0,0)" xlink:href="#cC"/><use transform="matrix(0.05,0,0,0.05,9,0)" xlink:href="#cP"/><use transform="matrix(0.05,0,0,0.05,19,0)" xlink:href="#cR"/><use transform="matrix(0.05,0,0,0.05,22.95,0)" xlink:href="#cQ"/><use transform="matrix(0.05,0,0,0.05,26.899999999999995,0)" xlink:href="#cW"/><use transform="matrix(0.05,0,0,0.05,36.9,0)" xlink:href="#do"/></g><path fill="#0c7cba" d="M134-131c28 9 52 24 51 62-1 50-34 73-85 73S17-19 16-69c0-36 21-54 49-61-75-25-45-126 34-121 46 3 78 18 79 63 0 33-17 51-44 57zm-34-11c31 1 46-15 46-44 0-28-17-43-47-42-29 0-46 13-45 42 1 28 16 44 46 44zm1 122c35 0 51-18 51-52 0-30-18-46-53-46-33 0-51 17-51 47 0 34 19 51 53 51" id="dM"/><g id="bz"><use transform="matrix(0.05,0,0,0.05,0,0)" xlink:href="#dM"/><use transform="matrix(0.05,0,0,0.05,10,0)" xlink:href="#cY"/></g><g id="bA"><use transform="matrix(0.05,0,0,0.05,0,0)" xlink:href="#cv"/><use transform="matrix(0.05,0,0,0.05,14,0)" xlink:href="#cK"/></g><path fill="#0c7cba" d="M101-251c68 0 85 55 85 127S166 4 100 4C33 4 14-52 14-124c0-73 17-127 87-127zm-1 229c47 0 54-49 54-102s-4-102-53-102c-51 0-55 48-55 102 0 53 5 102 54 102" id="dN"/><g id="bB"><use transform="matrix(0.05,0,0,0.05,0,0)" xlink:href="#cq"/><use transform="matrix(0.05,0,0,0.05,10,0)" xlink:href="#dN"/><use transform="matrix(0.05,0,0,0.05,20,0)" xlink:href="#cY"/></g><path fill="#0c7cba" d="M99-251c64 0 84 50 84 122C183-37 130 33 47-8c-14-7-20-23-25-40l30-5c6 39 69 39 84 7 9-19 16-44 16-74-10 22-31 35-62 35-49 0-73-33-73-83 0-54 28-83 82-83zm-1 141c31-1 51-18 51-49 0-36-14-67-51-67-34 0-49 23-49 58 0 34 15 58 49 58" id="dO"/><g id="bC"><use transform="matrix(0.05,0,0,0.05,0,0)" xlink:href="#dO"/><use transform="matrix(0.05,0,0,0.05,10,0)" xlink:href="#cY"/></g><g id="bD"><use transform="matrix(0.05,0,0,0.05,0,0)" xlink:href="#cJ"/><use transform="matrix(0.05,0,0,0.05,12.950000000000001,0)" xlink:href="#cM"/><use transform="matrix(0.05,0,0,0.05,22.950000000000003,0)" xlink:href="#cL"/></g><g id="bE"><use transform="matrix(0.05,0,0,0.05,0,0)" xlink:href="#cJ"/><use transform="matrix(0.05,0,0,0.05,12.950000000000001,0)" xlink:href="#cM"/></g><g id="bF"><use transform="matrix(0.05,0,0,0.05,0,0)" xlink:href="#cJ"/><use transform="matrix(0.05,0,0,0.05,12.950000000000001,0)" xlink:href="#cM"/></g><g id="bG"><use transform="matrix(0.05,0,0,0.05,0,0)" xlink:href="#dn"/><use transform="matrix(0.05,0,0,0.05,10,0)" xlink:href="#cB"/><use transform="matrix(0.05,0,0,0.05,20,0)" xlink:href="#dc"/><use transform="matrix(0.05,0,0,0.05,25,0)" xlink:href="#cA"/></g><g id="bH"><use transform="matrix(0.05,0,0,0.05,0,0)" xlink:href="#cQ"/><use transform="matrix(0.05,0,0,0.05,3.95,0)" xlink:href="#dh"/><use transform="matrix(0.05,0,0,0.05,13.949999999999998,0)" xlink:href="#cC"/><use transform="matrix(0.05,0,0,0.05,22.95,0)" xlink:href="#cQ"/><use transform="matrix(0.05,0,0,0.05,26.899999999999995,0)" xlink:href="#dc"/><use transform="matrix(0.05,0,0,0.05,31.899999999999995,0)" xlink:href="#cP"/><use transform="matrix(0.05,0,0,0.05,41.9,0)" xlink:href="#dc"/><use transform="matrix(0.05,0,0,0.05,46.9,0)" xlink:href="#cQ"/><use transform="matrix(0.05,0,0,0.05,50.85,0)" xlink:href="#cx"/><use transform="matrix(0.05,0,0,0.05,60.85,0)" xlink:href="#dh"/></g><g id="bI"><use transform="matrix(0.05,0,0,0.05,0,0)" xlink:href="#cA"/><use transform="matrix(0.05,0,0,0.05,9,0)" xlink:href="#cx"/></g><g id="bJ"><use transform="matrix(0.05,0,0,0.05,0,0)" xlink:href="#dm"/><use transform="matrix(0.05,0,0,0.05,10,0)" xlink:href="#cB"/></g><g id="bK"><use transform="matrix(0.05,0,0,0.05,0,0)" xlink:href="#db"/><use transform="matrix(0.05,0,0,0.05,9,0)" xlink:href="#cP"/><use transform="matrix(0.05,0,0,0.05,19,0)" xlink:href="#dh"/></g><g id="bL"><use transform="matrix(0.05,0,0,0.05,0,0)" xlink:href="#db"/><use transform="matrix(0.05,0,0,0.05,9,0)" xlink:href="#cx"/><use transform="matrix(0.05,0,0,0.05,19,0)" xlink:href="#dh"/><use transform="matrix(0.05,0,0,0.05,29,0)" xlink:href="#df"/><use transform="matrix(0.05,0,0,0.05,34,0)" xlink:href="#cQ"/><use transform="matrix(0.05,0,0,0.05,37.95,0)" xlink:href="#cw"/><use transform="matrix(0.05,0,0,0.05,43.900000000000006,0)" xlink:href="#cO"/></g><g id="bM"><use transform="matrix(0.05,0,0,0.05,0,0)" xlink:href="#cQ"/><use transform="matrix(0.05,0,0,0.05,3.95,0)" xlink:href="#dc"/><use transform="matrix(0.05,0,0,0.05,8.95,0)" xlink:href="#cV"/><use transform="matrix(0.05,0,0,0.05,12.35,0)" xlink:href="#cA"/></g><g id="bN"><use transform="matrix(0.05,0,0,0.05,0,0)" xlink:href="#cC"/><use transform="matrix(0.05,0,0,0.05,9,0)" xlink:href="#cP"/><use transform="matrix(0.05,0,0,0.05,19,0)" xlink:href="#cR"/><use transform="matrix(0.05,0,0,0.05,22.95,0)" xlink:href="#cQ"/><use transform="matrix(0.05,0,0,0.05,26.899999999999995,0)" xlink:href="#cW"/><use transform="matrix(0.05,0,0,0.05,36.9,0)" xlink:href="#cQ"/><use transform="matrix(0.05,0,0,0.05,40.85,0)" xlink:href="#dc"/><use transform="matrix(0.05,0,0,0.05,45.85,0)" xlink:href="#dl"/></g><path d="M30-248c87 1 191-15 191 75 0 78-77 80-158 76V0H30v-248zm33 125c57 0 124 11 124-50 0-59-68-47-124-48v98" id="dP"/><g id="bO"><use transform="matrix(0.05,0,0,0.05,0,0)" xlink:href="#dP"/><use transform="matrix(0.05,0,0,0.05,12,0)" xlink:href="#cw"/><use transform="matrix(0.05,0,0,0.05,17.95,0)" xlink:href="#cx"/><use transform="matrix(0.05,0,0,0.05,27.950000000000003,0)" xlink:href="#cC"/><use transform="matrix(0.05,0,0,0.05,36.95,0)" xlink:href="#cB"/><use transform="matrix(0.05,0,0,0.05,46.95,0)" xlink:href="#cA"/></g><g id="bP"><use transform="matrix(0.05,0,0,0.05,0,0)" xlink:href="#dI"/><use transform="matrix(0.05,0,0,0.05,14.950000000000001,0)" xlink:href="#cP"/><use transform="matrix(0.05,0,0,0.05,24.950000000000003,0)" xlink:href="#cQ"/><use transform="matrix(0.05,0,0,0.05,28.900000000000002,0)" xlink:href="#dh"/></g><g id="bQ"><use transform="matrix(0.05,0,0,0.05,0,0)" xlink:href="#cw"/><use transform="matrix(0.05,0,0,0.05,5.95,0)" xlink:href="#cB"/><use transform="matrix(0.05,0,0,0.05,15.949999999999998,0)" xlink:href="#dn"/><use transform="matrix(0.05,0,0,0.05,25.950000000000003,0)" xlink:href="#cQ"/><use transform="matrix(0.05,0,0,0.05,29.899999999999995,0)" xlink:href="#cA"/><use transform="matrix(0.05,0,0,0.05,38.9,0)" xlink:href="#dc"/><use transform="matrix(0.05,0,0,0.05,43.9,0)" xlink:href="#cB"/><use transform="matrix(0.05,0,0,0.05,53.900000000000006,0)" xlink:href="#cw"/><use transform="matrix(0.05,0,0,0.05,59.85,0)" xlink:href="#cB"/><use transform="matrix(0.05,0,0,0.05,69.85,0)" xlink:href="#cW"/></g><g id="bR"><use transform="matrix(0.05,0,0,0.05,0,0)" xlink:href="#dc"/><use transform="matrix(0.05,0,0,0.05,5,0)" xlink:href="#dm"/><use transform="matrix(0.05,0,0,0.05,15,0)" xlink:href="#cB"/></g><g id="bS"><use transform="matrix(0.05,0,0,0.05,0,0)" xlink:href="#db"/><use transform="matrix(0.05,0,0,0.05,9,0)" xlink:href="#cx"/><use transform="matrix(0.05,0,0,0.05,19,0)" xlink:href="#cw"/><use transform="matrix(0.05,0,0,0.05,24.95,0)" xlink:href="#cw"/><use transform="matrix(0.05,0,0,0.05,30.899999999999995,0)" xlink:href="#cB"/><use transform="matrix(0.05,0,0,0.05,40.9,0)" xlink:href="#db"/><use transform="matrix(0.05,0,0,0.05,49.9,0)" xlink:href="#dc"/></g><g id="bT"><use transform="matrix(0.05,0,0,0.05,0,0)" xlink:href="#cx"/><use transform="matrix(0.05,0,0,0.05,10,0)" xlink:href="#dh"/></g><g id="bU"><use transform="matrix(0.05,0,0,0.05,0,0)" xlink:href="#dn"/><use transform="matrix(0.05,0,0,0.05,10,0)" xlink:href="#cw"/><use transform="matrix(0.05,0,0,0.05,15.949999999999998,0)" xlink:href="#cx"/><use transform="matrix(0.05,0,0,0.05,25.950000000000003,0)" xlink:href="#cy"/><use transform="matrix(0.05,0,0,0.05,35.95,0)" xlink:href="#cz"/></g><g id="bV"><use transform="matrix(0.05,0,0,0.05,0,0)" xlink:href="#db"/><use transform="matrix(0.05,0,0,0.05,9,0)" xlink:href="#cx"/><use transform="matrix(0.05,0,0,0.05,19,0)" xlink:href="#dh"/><use transform="matrix(0.05,0,0,0.05,29,0)" xlink:href="#df"/><use transform="matrix(0.05,0,0,0.05,34,0)" xlink:href="#cQ"/><use transform="matrix(0.05,0,0,0.05,37.95,0)" xlink:href="#cw"/><use transform="matrix(0.05,0,0,0.05,43.900000000000006,0)" xlink:href="#cO"/><use transform="matrix(0.05,0,0,0.05,58.85,0)" xlink:href="#cA"/></g><g id="bW"><use transform="matrix(0.05,0,0,0.05,0,0)" xlink:href="#di"/><use transform="matrix(0.05,0,0,0.05,3.95,0)" xlink:href="#cx"/><use transform="matrix(0.05,0,0,0.05,13.949999999999998,0)" xlink:href="#cQ"/><use transform="matrix(0.05,0,0,0.05,17.9,0)" xlink:href="#dh"/></g><g id="bX"><use transform="matrix(0.05,0,0,0.05,0,0)" xlink:href="#dj"/><use transform="matrix(0.05,0,0,0.05,10,0)" xlink:href="#dl"/></g><g id="bY"><use transform="matrix(0.05,0,0,0.05,0,0)" xlink:href="#cQ"/><use transform="matrix(0.05,0,0,0.05,3.95,0)" xlink:href="#dc"/><use transform="matrix(0.05,0,0,0.05,8.95,0)" xlink:href="#cA"/><use transform="matrix(0.05,0,0,0.05,17.95,0)" xlink:href="#cB"/><use transform="matrix(0.05,0,0,0.05,27.950000000000003,0)" xlink:href="#cR"/><use transform="matrix(0.05,0,0,0.05,31.899999999999995,0)" xlink:href="#df"/></g><g id="bZ"><use transform="matrix(0.05,0,0,0.05,0,0)" xlink:href="#cA"/><use transform="matrix(0.05,0,0,0.05,9,0)" xlink:href="#cQ"/><use transform="matrix(0.05,0,0,0.05,12.949999999999998,0)" xlink:href="#dn"/><use transform="matrix(0.05,0,0,0.05,22.95,0)" xlink:href="#dh"/><use transform="matrix(0.05,0,0,0.05,32.95,0)" xlink:href="#cQ"/><use transform="matrix(0.05,0,0,0.05,36.900000000000006,0)" xlink:href="#dh"/><use transform="matrix(0.05,0,0,0.05,46.900000000000006,0)" xlink:href="#dn"/></g><g id="ca"><use transform="matrix(0.05,0,0,0.05,0,0)" xlink:href="#cQ"/><use transform="matrix(0.05,0,0,0.05,3.95,0)" xlink:href="#dh"/><use transform="matrix(0.05,0,0,0.05,13.949999999999998,0)" xlink:href="#cC"/><use transform="matrix(0.05,0,0,0.05,22.95,0)" xlink:href="#cQ"/><use transform="matrix(0.05,0,0,0.05,26.899999999999995,0)" xlink:href="#cP"/><use transform="matrix(0.05,0,0,0.05,36.9,0)" xlink:href="#dc"/><use transform="matrix(0.05,0,0,0.05,41.9,0)" xlink:href="#cQ"/><use transform="matrix(0.05,0,0,0.05,45.85,0)" xlink:href="#cx"/><use transform="matrix(0.05,0,0,0.05,55.85,0)" xlink:href="#dh"/></g></defs></g></svg>